<svg width="125" height="116" viewBox="0 0 125 116" fill="none" xmlns="http://www.w3.org/2000/svg">
<g filter="url(#filter0_bii_165_495)">
<rect x="0.601807" y="0.378418" width="124.287" height="115.346" rx="8.94152" fill="white" fill-opacity="0.03"/>
<path d="M44.0828 81.6976H42.9741C42.9086 81.3787 42.7938 81.0986 42.6299 80.8572C42.469 80.6158 42.2723 80.4131 42.0398 80.2492C41.8103 80.0823 41.5555 79.9571 41.2754 79.8737C40.9952 79.7902 40.7031 79.7485 40.3991 79.7485C39.8448 79.7485 39.3426 79.8886 38.8926 80.1687C38.4455 80.4489 38.0894 80.8617 37.8241 81.4071C37.5619 81.9525 37.4307 82.6215 37.4307 83.4143C37.4307 84.2071 37.5619 84.8761 37.8241 85.4215C38.0894 85.9669 38.4455 86.3797 38.8926 86.6599C39.3426 86.94 39.8448 87.0801 40.3991 87.0801C40.7031 87.0801 40.9952 87.0384 41.2754 86.9549C41.5555 86.8715 41.8103 86.7478 42.0398 86.5839C42.2723 86.417 42.469 86.2128 42.6299 85.9714C42.7938 85.727 42.9086 85.4469 42.9741 85.131H44.0828C43.9994 85.5989 43.8474 86.0176 43.6268 86.3872C43.4063 86.7567 43.1321 87.0711 42.8043 87.3304C42.4764 87.5867 42.1083 87.782 41.7 87.9161C41.2947 88.0502 40.8611 88.1172 40.3991 88.1172C39.6183 88.1172 38.9239 87.9265 38.3159 87.545C37.7079 87.1635 37.2296 86.6211 36.8809 85.9178C36.5322 85.2144 36.3578 84.3799 36.3578 83.4143C36.3578 82.4487 36.5322 81.6142 36.8809 80.9108C37.2296 80.2075 37.7079 79.6651 38.3159 79.2836C38.9239 78.9021 39.6183 78.7114 40.3991 78.7114C40.8611 78.7114 41.2947 78.7784 41.7 78.9125C42.1083 79.0466 42.4764 79.2433 42.8043 79.5026C43.1321 79.7589 43.4063 80.0719 43.6268 80.4414C43.8474 80.808 43.9994 81.2267 44.0828 81.6976ZM48.5209 88.1351C47.901 88.1351 47.3571 87.9876 46.8891 87.6925C46.4242 87.3975 46.0606 86.9847 45.7984 86.4542C45.5391 85.9237 45.4094 85.3038 45.4094 84.5945C45.4094 83.8792 45.5391 83.2549 45.7984 82.7214C46.0606 82.1879 46.4242 81.7736 46.8891 81.4786C47.3571 81.1835 47.901 81.036 48.5209 81.036C49.1408 81.036 49.6832 81.1835 50.1481 81.4786C50.616 81.7736 50.9796 82.1879 51.2389 82.7214C51.5012 83.2549 51.6323 83.8792 51.6323 84.5945C51.6323 85.3038 51.5012 85.9237 51.2389 86.4542C50.9796 86.9847 50.616 87.3975 50.1481 87.6925C49.6832 87.9876 49.1408 88.1351 48.5209 88.1351ZM48.5209 87.1874C48.9918 87.1874 49.3792 87.0667 49.6832 86.8253C49.9872 86.5839 50.2122 86.2665 50.3582 85.8731C50.5043 85.4797 50.5773 85.0535 50.5773 84.5945C50.5773 84.1355 50.5043 83.7079 50.3582 83.3115C50.2122 82.9151 49.9872 82.5947 49.6832 82.3503C49.3792 82.1059 48.9918 81.9837 48.5209 81.9837C48.05 81.9837 47.6625 82.1059 47.3585 82.3503C47.0546 82.5947 46.8295 82.9151 46.6835 83.3115C46.5375 83.7079 46.4645 84.1355 46.4645 84.5945C46.4645 85.0535 46.5375 85.4797 46.6835 85.8731C46.8295 86.2665 47.0546 86.5839 47.3585 86.8253C47.6625 87.0667 48.05 87.1874 48.5209 87.1874ZM54.2978 83.8613V87.9921H53.2428V81.1254H54.2621V82.1983H54.3515C54.5124 81.8496 54.7568 81.5695 55.0846 81.3579C55.4125 81.1433 55.8357 81.036 56.3543 81.036C56.8192 81.036 57.226 81.1314 57.5747 81.3221C57.9234 81.5099 58.1946 81.796 58.3883 82.1804C58.582 82.5619 58.6789 83.0447 58.6789 83.6289V87.9921H57.6239V83.7004C57.6239 83.161 57.4838 82.7407 57.2037 82.4397C56.9235 82.1357 56.539 81.9837 56.0503 81.9837C55.7135 81.9837 55.4125 82.0568 55.1472 82.2028C54.885 82.3488 54.6778 82.5619 54.5258 82.8421C54.3738 83.1222 54.2978 83.462 54.2978 83.8613ZM63.6646 81.1254V82.0195H59.963V81.1254H63.6646ZM61.0717 87.9921V80.1777C61.0717 79.7843 61.1641 79.4564 61.3489 79.1942C61.5337 78.9319 61.7736 78.7352 62.0686 78.6041C62.3637 78.4729 62.6751 78.4074 63.003 78.4074C63.2623 78.4074 63.4739 78.4282 63.6378 78.47C63.8017 78.5117 63.9239 78.5504 64.0044 78.5862L63.7004 79.4982C63.6467 79.4803 63.5722 79.4579 63.4768 79.4311C63.3845 79.4043 63.2623 79.3909 63.1103 79.3909C62.7616 79.3909 62.5097 79.4788 62.3548 79.6546C62.2028 79.8305 62.1268 80.0883 62.1268 80.428V87.9921H61.0717ZM65.1432 87.9921V81.1254H66.1982V87.9921H65.1432ZM65.6797 79.981C65.474 79.981 65.2967 79.9109 65.1477 79.7709C65.0016 79.6308 64.9286 79.4624 64.9286 79.2657C64.9286 79.069 65.0016 78.9006 65.1477 78.7605C65.2967 78.6205 65.474 78.5504 65.6797 78.5504C65.8853 78.5504 66.0611 78.6205 66.2072 78.7605C66.3562 78.9006 66.4307 79.069 66.4307 79.2657C66.4307 79.4624 66.3562 79.6308 66.2072 79.7709C66.0611 79.9109 65.8853 79.981 65.6797 79.981ZM68.1306 87.9921V81.1254H69.1499V82.1626H69.2214C69.3466 81.8228 69.5731 81.5471 69.9009 81.3355C70.2288 81.1239 70.5983 81.0181 71.0096 81.0181C71.0871 81.0181 71.1839 81.0196 71.3002 81.0226C71.4164 81.0256 71.5043 81.03 71.5639 81.036V82.1089C71.5282 82.1 71.4462 82.0866 71.3181 82.0687C71.1929 82.0478 71.0603 82.0374 70.9202 82.0374C70.5864 82.0374 70.2884 82.1074 70.0261 82.2475C69.7668 82.3846 69.5612 82.5753 69.4092 82.8197C69.2601 83.0611 69.1856 83.3368 69.1856 83.6468V87.9921H68.1306ZM72.8145 87.9921V81.1254H73.8338V82.1983H73.9232C74.0663 81.8318 74.2973 81.5471 74.6161 81.3445C74.935 81.1388 75.318 81.036 75.7651 81.036C76.2181 81.036 76.5951 81.1388 76.8961 81.3445C77.2001 81.5471 77.437 81.8318 77.6069 82.1983H77.6784C77.8543 81.8437 78.118 81.562 78.4697 81.3534C78.8214 81.1418 79.2431 81.036 79.7348 81.036C80.3488 81.036 80.851 81.2282 81.2414 81.6127C81.6318 81.9942 81.827 82.5888 81.827 83.3964V87.9921H80.772V83.3964C80.772 82.8898 80.6334 82.5277 80.3562 82.3101C80.0791 82.0925 79.7527 81.9837 79.3772 81.9837C78.8944 81.9837 78.5204 82.1298 78.2551 82.4219C77.9899 82.7109 77.8572 83.0775 77.8572 83.5216V87.9921H76.7843V83.2891C76.7843 82.8987 76.6577 82.5843 76.4043 82.3459C76.151 82.1045 75.8247 81.9837 75.4253 81.9837C75.1511 81.9837 74.8948 82.0568 74.6564 82.2028C74.4209 82.3488 74.2302 82.5515 74.0842 82.8108C73.9411 83.0671 73.8696 83.3636 73.8696 83.7004V87.9921H72.8145ZM85.7767 88.153C85.3416 88.153 84.9467 88.071 84.592 87.9071C84.2373 87.7402 83.9557 87.5003 83.7471 87.1874C83.5385 86.8715 83.4342 86.49 83.4342 86.0429C83.4342 85.6495 83.5116 85.3306 83.6666 85.0863C83.8216 84.8389 84.0287 84.6452 84.288 84.5051C84.5473 84.365 84.8334 84.2607 85.1463 84.1922C85.4623 84.1206 85.7797 84.064 86.0986 84.0223C86.5158 83.9686 86.8541 83.9284 87.1134 83.9016C87.3756 83.8718 87.5664 83.8226 87.6856 83.7541C87.8078 83.6855 87.8689 83.5663 87.8689 83.3964V83.3607C87.8689 82.9196 87.7482 82.5768 87.5068 82.3324C87.2683 82.0881 86.9062 81.9659 86.4204 81.9659C85.9168 81.9659 85.5219 82.0761 85.2358 82.2967C84.9496 82.5172 84.7485 82.7527 84.6322 83.003L83.6309 82.6454C83.8097 82.2281 84.0481 81.9033 84.3461 81.6708C84.6471 81.4354 84.975 81.2715 85.3296 81.1791C85.6873 81.0837 86.039 81.036 86.3847 81.036C86.6052 81.036 86.8585 81.0628 87.1446 81.1165C87.4337 81.1671 87.7124 81.2729 87.9806 81.4339C88.2518 81.5948 88.4768 81.8377 88.6557 82.1626C88.8345 82.4874 88.9239 82.9225 88.9239 83.4679V87.9921H87.8689V87.0622H87.8152C87.7437 87.2112 87.6245 87.3707 87.4576 87.5405C87.2907 87.7104 87.0686 87.855 86.7915 87.9742C86.5143 88.0934 86.176 88.153 85.7767 88.153ZM85.9376 87.2053C86.3549 87.2053 86.7065 87.1233 86.9927 86.9594C87.2817 86.7955 87.4993 86.5839 87.6453 86.3246C87.7944 86.0653 87.8689 85.7926 87.8689 85.5065V84.5409C87.8242 84.5945 87.7258 84.6437 87.5738 84.6884C87.4248 84.7301 87.2519 84.7674 87.0552 84.8001C86.8615 84.8299 86.6723 84.8568 86.4875 84.8806C86.3057 84.9015 86.1582 84.9194 86.0449 84.9343C85.7707 84.97 85.5144 85.0281 85.276 85.1086C85.0405 85.1861 84.8498 85.3038 84.7038 85.4618C84.5607 85.6168 84.4892 85.8284 84.4892 86.0966C84.4892 86.4632 84.6248 86.7403 84.896 86.9281C85.1702 87.1129 85.5174 87.2053 85.9376 87.2053ZM33.7532 102.992H32.5909L35.9527 93.8365H37.0971L40.4589 102.992H39.2966L36.5607 95.285H36.4891L33.7532 102.992ZM34.1824 99.4157H38.8674V100.399H34.1824V99.4157ZM46.6058 97.6633L45.6581 97.9315C45.5985 97.7735 45.5106 97.62 45.3943 97.471C45.2811 97.319 45.1261 97.1939 44.9294 97.0955C44.7327 96.9972 44.4809 96.948 44.1739 96.948C43.7537 96.948 43.4035 97.0448 43.1233 97.2386C42.8462 97.4293 42.7076 97.6722 42.7076 97.9673C42.7076 98.2295 42.8029 98.4367 42.9937 98.5886C43.1844 98.7406 43.4825 98.8673 43.8878 98.9686L44.9071 99.219C45.521 99.368 45.9785 99.596 46.2795 99.903C46.5805 100.207 46.731 100.599 46.731 101.079C46.731 101.472 46.6178 101.824 46.3912 102.134C46.1677 102.444 45.8548 102.688 45.4524 102.867C45.0501 103.046 44.5822 103.135 44.0487 103.135C43.3483 103.135 42.7687 102.983 42.3097 102.679C41.8507 102.375 41.5602 101.931 41.438 101.347L42.4393 101.097C42.5347 101.466 42.715 101.743 42.9803 101.928C43.2485 102.113 43.5987 102.205 44.0308 102.205C44.5226 102.205 44.913 102.101 45.2021 101.892C45.4942 101.681 45.6402 101.427 45.6402 101.132C45.6402 100.894 45.5568 100.694 45.3899 100.533C45.223 100.369 44.9667 100.247 44.6209 100.167L43.4765 99.8985C42.8477 99.7495 42.3857 99.5185 42.0907 99.2056C41.7986 98.8897 41.6525 98.4948 41.6525 98.0209C41.6525 97.6335 41.7613 97.2907 41.9789 96.9927C42.1994 96.6947 42.499 96.4607 42.8775 96.2908C43.2589 96.1209 43.6911 96.036 44.1739 96.036C44.8534 96.036 45.3869 96.185 45.7743 96.4831C46.1647 96.7811 46.4419 97.1745 46.6058 97.6633ZM48.3191 102.992V96.1254H49.3742V102.992H48.3191ZM48.8556 94.981C48.65 94.981 48.4726 94.9109 48.3236 94.7709C48.1776 94.6308 48.1046 94.4624 48.1046 94.2657C48.1046 94.069 48.1776 93.9006 48.3236 93.7605C48.4726 93.6205 48.65 93.5504 48.8556 93.5504C49.0612 93.5504 49.2371 93.6205 49.3831 93.7605C49.5321 93.9006 49.6066 94.069 49.6066 94.2657C49.6066 94.4624 49.5321 94.6308 49.3831 94.7709C49.2371 94.9109 49.0612 94.981 48.8556 94.981ZM56.1704 97.6633L55.2227 97.9315C55.1631 97.7735 55.0751 97.62 54.9589 97.471C54.8457 97.319 54.6907 97.1939 54.494 97.0955C54.2973 96.9972 54.0454 96.948 53.7385 96.948C53.3182 96.948 52.9681 97.0448 52.6879 97.2386C52.4107 97.4293 52.2722 97.6722 52.2722 97.9673C52.2722 98.2295 52.3675 98.4367 52.5583 98.5886C52.749 98.7406 53.047 98.8673 53.4524 98.9686L54.4716 99.219C55.0856 99.368 55.5431 99.596 55.8441 99.903C56.1451 100.207 56.2956 100.599 56.2956 101.079C56.2956 101.472 56.1823 101.824 55.9558 102.134C55.7323 102.444 55.4194 102.688 55.017 102.867C54.6147 103.046 54.1468 103.135 53.6133 103.135C52.9129 103.135 52.3333 102.983 51.8743 102.679C51.4153 102.375 51.1247 101.931 51.0025 101.347L52.0039 101.097C52.0993 101.466 52.2796 101.743 52.5449 101.928C52.8131 102.113 53.1633 102.205 53.5954 102.205C54.0872 102.205 54.4776 102.101 54.7667 101.892C55.0588 101.681 55.2048 101.427 55.2048 101.132C55.2048 100.894 55.1213 100.694 54.9544 100.533C54.7875 100.369 54.5312 100.247 54.1855 100.167L53.0411 99.8985C52.4122 99.7495 51.9503 99.5185 51.6552 99.2056C51.3632 98.8897 51.2171 98.4948 51.2171 98.0209C51.2171 97.6335 51.3259 97.2907 51.5435 96.9927C51.764 96.6947 52.0635 96.4607 52.442 96.2908C52.8235 96.1209 53.2557 96.036 53.7385 96.036C54.418 96.036 54.9515 96.185 55.3389 96.4831C55.7293 96.7811 56.0065 97.1745 56.1704 97.6633ZM60.87 96.1254V97.0195H57.3115V96.1254H60.87ZM58.3487 94.4803H59.4037V101.025C59.4037 101.323 59.4469 101.547 59.5333 101.696C59.6227 101.842 59.736 101.94 59.8731 101.991C60.0132 102.038 60.1607 102.062 60.3157 102.062C60.4319 102.062 60.5273 102.056 60.6018 102.044C60.6763 102.029 60.7359 102.018 60.7806 102.009L60.9952 102.956C60.9236 102.983 60.8238 103.01 60.6956 103.037C60.5675 103.067 60.4051 103.081 60.2084 103.081C59.9103 103.081 59.6183 103.017 59.3322 102.889C59.049 102.761 58.8136 102.566 58.6258 102.304C58.441 102.041 58.3487 101.711 58.3487 101.311V94.4803ZM65.2622 103.135C64.6006 103.135 64.0299 102.989 63.55 102.697C63.0732 102.402 62.7051 101.991 62.4458 101.463C62.1895 100.933 62.0614 100.316 62.0614 99.6124C62.0614 98.909 62.1895 98.2891 62.4458 97.7527C62.7051 97.2132 63.0657 96.793 63.5277 96.492C63.9926 96.188 64.535 96.036 65.1549 96.036C65.5126 96.036 65.8658 96.0956 66.2144 96.2148C66.5631 96.334 66.8805 96.5278 67.1667 96.796C67.4528 97.0612 67.6808 97.4129 67.8506 97.851C68.0205 98.2891 68.1055 98.8286 68.1055 99.4693V99.9164H62.8124V99.0044H67.0325C67.0325 98.617 66.9551 98.2712 66.8001 97.9673C66.6481 97.6633 66.4305 97.4233 66.1474 97.2475C65.8672 97.0717 65.5364 96.9837 65.1549 96.9837C64.7347 96.9837 64.3711 97.0881 64.0642 97.2967C63.7602 97.5023 63.5262 97.7706 63.3623 98.1014C63.1984 98.4322 63.1164 98.7868 63.1164 99.1653V99.7733C63.1164 100.292 63.2058 100.731 63.3846 101.092C63.5664 101.45 63.8183 101.722 64.1401 101.91C64.462 102.095 64.8361 102.187 65.2622 102.187C65.5394 102.187 65.7898 102.149 66.0133 102.071C66.2398 101.991 66.435 101.871 66.5989 101.714C66.7628 101.553 66.8895 101.353 66.9789 101.114L67.9982 101.401C67.8909 101.746 67.7106 102.05 67.4572 102.313C67.2039 102.572 66.891 102.775 66.5184 102.921C66.1459 103.064 65.7272 103.135 65.2622 103.135ZM70.7654 98.8613V102.992H69.7104V96.1254H70.7296V97.1983H70.819C70.98 96.8496 71.2244 96.5695 71.5522 96.3579C71.88 96.1433 72.3032 96.036 72.8218 96.036C73.2867 96.036 73.6936 96.1314 74.0422 96.3221C74.3909 96.5099 74.6622 96.796 74.8559 97.1804C75.0496 97.5619 75.1465 98.0447 75.1465 98.6289V102.992H74.0914V98.7004C74.0914 98.161 73.9513 97.7407 73.6712 97.4397C73.391 97.1357 73.0066 96.9837 72.5178 96.9837C72.181 96.9837 71.88 97.0568 71.6148 97.2028C71.3525 97.3488 71.1454 97.5619 70.9934 97.8421C70.8414 98.1222 70.7654 98.462 70.7654 98.8613ZM79.8639 103.135C79.2202 103.135 78.6658 102.983 78.2009 102.679C77.736 102.375 77.3783 101.956 77.128 101.423C76.8776 100.889 76.7525 100.28 76.7525 99.5945C76.7525 98.8971 76.8806 98.2817 77.1369 97.7482C77.3962 97.2117 77.7568 96.793 78.2188 96.492C78.6837 96.188 79.2261 96.036 79.846 96.036C80.3289 96.036 80.764 96.1254 81.1514 96.3042C81.5389 96.4831 81.8563 96.7334 82.1036 97.0553C82.351 97.3771 82.5045 97.7527 82.5641 98.1818H81.5091C81.4286 97.8689 81.2498 97.5917 80.9726 97.3503C80.6984 97.1059 80.3289 96.9837 79.8639 96.9837C79.4526 96.9837 79.092 97.091 78.7821 97.3056C78.4751 97.5172 78.2352 97.8167 78.0623 98.2042C77.8924 98.5886 77.8075 99.0402 77.8075 99.5587C77.8075 100.089 77.891 100.551 78.0579 100.945C78.2277 101.338 78.4662 101.643 78.7731 101.861C79.0831 102.079 79.4467 102.187 79.8639 102.187C80.1381 102.187 80.387 102.14 80.6105 102.044C80.834 101.949 81.0233 101.812 81.1782 101.633C81.3332 101.454 81.4435 101.24 81.5091 100.989H82.5641C82.5045 101.395 82.357 101.76 82.1215 102.085C81.8891 102.406 81.5806 102.663 81.1961 102.853C80.8146 103.041 80.3706 103.135 79.8639 103.135ZM84.1064 102.992V96.1254H85.1614V102.992H84.1064ZM84.6429 94.981C84.4372 94.981 84.2599 94.9109 84.1109 94.7709C83.9648 94.6308 83.8918 94.4624 83.8918 94.2657C83.8918 94.069 83.9648 93.9006 84.1109 93.7605C84.2599 93.6205 84.4372 93.5504 84.6429 93.5504C84.8485 93.5504 85.0243 93.6205 85.1704 93.7605C85.3194 93.9006 85.3939 94.069 85.3939 94.2657C85.3939 94.4624 85.3194 94.6308 85.1704 94.7709C85.0243 94.9109 84.8485 94.981 84.6429 94.981ZM89.1145 103.153C88.6793 103.153 88.2844 103.071 87.9298 102.907C87.5751 102.74 87.2935 102.5 87.0849 102.187C86.8762 101.871 86.7719 101.49 86.7719 101.043C86.7719 100.65 86.8494 100.331 87.0044 100.086C87.1594 99.8389 87.3665 99.6452 87.6258 99.5051C87.8851 99.365 88.1712 99.2607 88.4841 99.1922C88.8 99.1206 89.1174 99.064 89.4363 99.0223C89.8536 98.9686 90.1918 98.9284 90.4511 98.9016C90.7134 98.8718 90.9041 98.8226 91.0233 98.7541C91.1455 98.6855 91.2066 98.5663 91.2066 98.3964V98.3607C91.2066 97.9196 91.0859 97.5768 90.8445 97.3324C90.6061 97.0881 90.244 96.9659 89.7582 96.9659C89.2545 96.9659 88.8596 97.0761 88.5735 97.2967C88.2874 97.5172 88.0862 97.7527 87.97 98.003L86.9686 97.6454C87.1474 97.2281 87.3859 96.9033 87.6839 96.6708C87.9849 96.4354 88.3127 96.2715 88.6674 96.1791C89.025 96.0837 89.3767 96.036 89.7224 96.036C89.943 96.036 90.1963 96.0628 90.4824 96.1165C90.7715 96.1671 91.0502 96.2729 91.3184 96.4339C91.5896 96.5948 91.8146 96.8377 91.9934 97.1626C92.1723 97.4874 92.2617 97.9225 92.2617 98.4679V102.992H91.2066V102.062H91.153C91.0815 102.211 90.9622 102.371 90.7953 102.541C90.6285 102.71 90.4064 102.855 90.1292 102.974C89.8521 103.093 89.5138 103.153 89.1145 103.153ZM89.2754 102.205C89.6926 102.205 90.0443 102.123 90.3304 101.959C90.6195 101.795 90.8371 101.584 90.9831 101.325C91.1321 101.065 91.2066 100.793 91.2066 100.506V99.5409C91.1619 99.5945 91.0636 99.6437 90.9116 99.6884C90.7626 99.7301 90.5897 99.7674 90.393 99.8001C90.1993 99.8299 90.01 99.8568 89.8253 99.8806C89.6435 99.9015 89.4959 99.9194 89.3827 99.9343C89.1085 99.97 88.8522 100.028 88.6138 100.109C88.3783 100.186 88.1876 100.304 88.0415 100.462C87.8985 100.617 87.827 100.828 87.827 101.097C87.827 101.463 87.9626 101.74 88.2338 101.928C88.508 102.113 88.8552 102.205 89.2754 102.205Z" fill="white"/>
<a href="https://www.bodas.com.mx/web/luis-emilio-and-itza-salcedo">
<rect fill="black" fill-opacity="0" x="35.005" y="66.6286" width="54.2827" height="15.2354"/>
</a>
<a href="https://www.bodas.com.mx/web/luis-emilio-and-itza-salcedo">
<rect fill="black" fill-opacity="0" x="40.1745" y="81.6286" width="52.451" height="15.2354"/>
</a>
<path fill-rule="evenodd" clip-rule="evenodd" d="M61.4121 39.9907C62.0012 39.9907 62.4788 40.4683 62.4788 41.0574C62.4788 41.6012 62.0719 42.0499 61.5459 42.1157L61.4121 42.1241H52.4788V61.3241H72.3455V53.0574C72.3455 52.5136 72.7524 52.0649 73.2783 51.999L73.4121 51.9907C73.9559 51.9907 74.4047 52.3976 74.4705 52.9236L74.4788 53.0574V62.3907C74.4788 62.9345 74.0719 63.3833 73.5459 63.4491L73.4121 63.4574H51.4121C50.8683 63.4574 50.4196 63.0505 50.3538 62.5245L50.3455 62.3907V41.0574C50.3455 40.5136 50.7524 40.0649 51.2783 39.999L51.4121 39.9907H61.4121Z" fill="white"/>
<path fill-rule="evenodd" clip-rule="evenodd" d="M73.5269 40.1493C72.9829 40.1493 72.4389 40.338 72.0245 40.7175L61.4603 51.6464L60.7454 55.0573L64.4651 54.4017L75.0292 43.4745C75.4304 43.1066 75.6527 42.617 75.6527 42.0969C75.6527 41.5768 75.4304 41.0863 75.0292 40.7175C74.6149 40.338 74.0708 40.1493 73.5269 40.1493Z" fill="white"/>
</g>
<defs>
<filter id="filter0_bii_165_495" x="-64.4229" y="-64.6463" width="254.337" height="245.395" filterUnits="userSpaceOnUse" color-interpolation-filters="sRGB">
<feFlood flood-opacity="0" result="BackgroundImageFix"/>
<feGaussianBlur in="BackgroundImageFix" stdDeviation="32.5124"/>
<feComposite in2="SourceAlpha" operator="in" result="effect1_backgroundBlur_165_495"/>
<feBlend mode="normal" in="SourceGraphic" in2="effect1_backgroundBlur_165_495" result="shape"/>
<feColorMatrix in="SourceAlpha" type="matrix" values="0 0 0 0 0 0 0 0 0 0 0 0 0 0 0 0 0 0 127 0" result="hardAlpha"/>
<feOffset dy="2.02763"/>
<feGaussianBlur stdDeviation="1.01381"/>
<feComposite in2="hardAlpha" operator="arithmetic" k2="-1" k3="1"/>
<feColorMatrix type="matrix" values="0 0 0 0 1 0 0 0 0 1 0 0 0 0 1 0 0 0 0.15 0"/>
<feBlend mode="normal" in2="shape" result="effect2_innerShadow_165_495"/>
<feColorMatrix in="SourceAlpha" type="matrix" values="0 0 0 0 0 0 0 0 0 0 0 0 0 0 0 0 0 0 127 0" result="hardAlpha"/>
<feOffset/>
<feGaussianBlur stdDeviation="15.2072"/>
<feComposite in2="hardAlpha" operator="arithmetic" k2="-1" k3="1"/>
<feColorMatrix type="matrix" values="0 0 0 0 1 0 0 0 0 1 0 0 0 0 1 0 0 0 0.05 0"/>
<feBlend mode="normal" in2="effect2_innerShadow_165_495" result="effect3_innerShadow_165_495"/>
</filter>
</defs>
</svg>
