<svg width="125" height="116" viewBox="0 0 125 116" fill="none" xmlns="http://www.w3.org/2000/svg">
<g filter="url(#filter0_bii_165_496)">
<rect x="0.459473" y="0.378418" width="124.287" height="115.346" rx="8.94152" fill="white" fill-opacity="0.03"/>
<path d="M38.2697 78.5829H39.5929L42.7044 86.1827H42.8117L45.9231 78.5829H47.2464V87.7384H46.2092V80.7823H46.1198L43.2587 87.7384H42.2573L39.3962 80.7823H39.3068V87.7384H38.2697V78.5829ZM52.2053 87.8815C51.5436 87.8815 50.9729 87.7354 50.4931 87.4434C50.0162 87.1483 49.6482 86.737 49.3889 86.2095C49.1326 85.679 49.0044 85.0621 49.0044 84.3587C49.0044 83.6554 49.1326 83.0355 49.3889 82.499C49.6482 81.9596 50.0088 81.5393 50.4707 81.2383C50.9356 80.9343 51.4781 80.7823 52.098 80.7823C52.4556 80.7823 52.8088 80.842 53.1575 80.9612C53.5062 81.0804 53.8236 81.2741 54.1097 81.5423C54.3958 81.8076 54.6238 82.1593 54.7937 82.5974C54.9635 83.0355 55.0485 83.5749 55.0485 84.2157V84.6627H49.7554V83.7507H53.9756C53.9756 83.3633 53.8981 83.0176 53.7431 82.7136C53.5911 82.4096 53.3735 82.1697 53.0904 81.9938C52.8103 81.818 52.4795 81.7301 52.098 81.7301C51.6777 81.7301 51.3141 81.8344 51.0072 82.043C50.7032 82.2487 50.4692 82.5169 50.3053 82.8477C50.1414 83.1785 50.0594 83.5332 50.0594 83.9117V84.5197C50.0594 85.0382 50.1488 85.4778 50.3277 85.8385C50.5095 86.1961 50.7613 86.4688 51.0832 86.6565C51.405 86.8413 51.7791 86.9337 52.2053 86.9337C52.4824 86.9337 52.7328 86.895 52.9563 86.8175C53.1828 86.737 53.378 86.6178 53.5419 86.4598C53.7059 86.2989 53.8325 86.0992 53.9219 85.8608L54.9412 86.1469C54.8339 86.4926 54.6536 86.7966 54.4003 87.0589C54.1469 87.3182 53.834 87.5208 53.4615 87.6669C53.0889 87.8099 52.6702 87.8815 52.2053 87.8815ZM61.5173 82.4096L60.5695 82.6778C60.5099 82.5199 60.422 82.3664 60.3058 82.2174C60.1925 82.0654 60.0375 81.9402 59.8408 81.8418C59.6441 81.7435 59.3923 81.6943 59.0853 81.6943C58.6651 81.6943 58.3149 81.7912 58.0348 81.9849C57.7576 82.1756 57.619 82.4185 57.619 82.7136C57.619 82.9759 57.7144 83.183 57.9051 83.335C58.0959 83.487 58.3939 83.6136 58.7992 83.715L59.8185 83.9653C60.4324 84.1143 60.8899 84.3423 61.1909 84.6493C61.4919 84.9533 61.6424 85.3452 61.6424 85.825C61.6424 86.2184 61.5292 86.5701 61.3027 86.8801C61.0792 87.19 60.7662 87.4344 60.3639 87.6132C59.9615 87.792 59.4936 87.8815 58.9602 87.8815C58.2598 87.8815 57.6801 87.7295 57.2211 87.4255C56.7622 87.1215 56.4716 86.6774 56.3494 86.0933L57.3508 85.8429C57.4461 86.2125 57.6265 86.4897 57.8917 86.6744C58.1599 86.8592 58.5101 86.9516 58.9423 86.9516C59.434 86.9516 59.8244 86.8473 60.1135 86.6387C60.4056 86.4271 60.5516 86.1737 60.5516 85.8787C60.5516 85.6403 60.4682 85.4406 60.3013 85.2796C60.1344 85.1157 59.8781 84.9935 59.5324 84.9131L58.3879 84.6448C57.7591 84.4958 57.2971 84.2648 57.0021 83.9519C56.71 83.636 56.564 83.2411 56.564 82.7672C56.564 82.3798 56.6728 82.0371 56.8903 81.739C57.1109 81.441 57.4104 81.207 57.7889 81.0372C58.1704 80.8673 58.6025 80.7823 59.0853 80.7823C59.7648 80.7823 60.2983 80.9314 60.6858 81.2294C61.0762 81.5274 61.3533 81.9208 61.5173 82.4096ZM65.2512 87.8993C64.8161 87.8993 64.4212 87.8174 64.0665 87.6535C63.7119 87.4866 63.4303 87.2467 63.2216 86.9337C63.013 86.6178 62.9087 86.2363 62.9087 85.7893C62.9087 85.3959 62.9862 85.077 63.1412 84.8326C63.2961 84.5852 63.5033 84.3915 63.7626 84.2514C64.0218 84.1114 64.308 84.007 64.6209 83.9385C64.9368 83.867 65.2542 83.8103 65.5731 83.7686C65.9903 83.715 66.3286 83.6747 66.5879 83.6479C66.8502 83.6181 67.0409 83.5689 67.1601 83.5004C67.2823 83.4318 67.3434 83.3126 67.3434 83.1428V83.107C67.3434 82.6659 67.2227 82.3232 66.9813 82.0788C66.7429 81.8344 66.3808 81.7122 65.895 81.7122C65.3913 81.7122 64.9964 81.8225 64.7103 82.043C64.4242 82.2636 64.223 82.499 64.1068 82.7494L63.1054 82.3917C63.2842 81.9745 63.5226 81.6496 63.8207 81.4172C64.1217 81.1817 64.4495 81.0178 64.8042 80.9254C65.1618 80.83 65.5135 80.7823 65.8592 80.7823C66.0798 80.7823 66.3331 80.8092 66.6192 80.8628C66.9083 80.9135 67.1869 81.0193 67.4552 81.1802C67.7264 81.3412 67.9514 81.5841 68.1302 81.9089C68.309 82.2338 68.3984 82.6689 68.3984 83.2143V87.7384H67.3434V86.8085H67.2898C67.2182 86.9576 67.099 87.117 66.9321 87.2869C66.7652 87.4568 66.5432 87.6013 66.266 87.7205C65.9889 87.8397 65.6506 87.8993 65.2512 87.8993ZM65.4122 86.9516C65.8294 86.9516 66.1811 86.8696 66.4672 86.7057C66.7563 86.5418 66.9738 86.3302 67.1199 86.0709C67.2689 85.8116 67.3434 85.5389 67.3434 85.2528V84.2872C67.2987 84.3408 67.2004 84.39 67.0484 84.4347C66.8993 84.4764 66.7265 84.5137 66.5298 84.5465C66.3361 84.5763 66.1468 84.6031 65.962 84.627C65.7802 84.6478 65.6327 84.6657 65.5195 84.6806C65.2453 84.7164 64.989 84.7745 64.7505 84.8549C64.5151 84.9324 64.3243 85.0502 64.1783 85.2081C64.0353 85.3631 63.9637 85.5747 63.9637 85.8429C63.9637 86.2095 64.0993 86.4867 64.3705 86.6744C64.6447 86.8592 64.9919 86.9516 65.4122 86.9516ZM76.4576 87.8815C75.8854 87.8815 75.3802 87.7369 74.9421 87.4478C74.504 87.1558 74.1613 86.7445 73.9139 86.214C73.6665 85.6805 73.5428 85.0502 73.5428 84.323C73.5428 83.6017 73.6665 82.9759 73.9139 82.4454C74.1613 81.9149 74.5055 81.5051 74.9466 81.216C75.3877 80.9269 75.8973 80.7823 76.4755 80.7823C76.9225 80.7823 77.2757 80.8569 77.535 81.0059C77.7972 81.1519 77.9969 81.3188 78.134 81.5066C78.2741 81.6913 78.3829 81.8433 78.4604 81.9626H78.5498V78.5829H79.6048V87.7384H78.5855V86.6834H78.4604C78.3829 86.8085 78.2726 86.9665 78.1295 87.1572C77.9865 87.345 77.7823 87.5134 77.5171 87.6624C77.2518 87.8084 76.8987 87.8815 76.4576 87.8815ZM76.6006 86.9337C77.0238 86.9337 77.3815 86.8234 77.6736 86.6029C77.9656 86.3794 78.1877 86.0709 78.3397 85.6775C78.4917 85.2811 78.5677 84.8237 78.5677 84.3051C78.5677 83.7925 78.4931 83.3439 78.3441 82.9595C78.1951 82.572 77.9746 82.271 77.6825 82.0564C77.3904 81.8389 77.0298 81.7301 76.6006 81.7301C76.1536 81.7301 75.7811 81.8448 75.483 82.0743C75.188 82.3008 74.9659 82.6093 74.8169 82.9997C74.6709 83.3871 74.5979 83.8223 74.5979 84.3051C74.5979 84.7939 74.6724 85.2379 74.8214 85.6373C74.9734 86.0337 75.1969 86.3496 75.492 86.585C75.79 86.8175 76.1596 86.9337 76.6006 86.9337ZM84.5626 87.8815C83.9009 87.8815 83.3302 87.7354 82.8504 87.4434C82.3735 87.1483 82.0054 86.737 81.7462 86.2095C81.4899 85.679 81.3617 85.0621 81.3617 84.3587C81.3617 83.6554 81.4899 83.0355 81.7462 82.499C82.0054 81.9596 82.3661 81.5393 82.828 81.2383C83.2929 80.9343 83.8354 80.7823 84.4553 80.7823C84.8129 80.7823 85.1661 80.842 85.5148 80.9612C85.8635 81.0804 86.1809 81.2741 86.467 81.5423C86.7531 81.8076 86.9811 82.1593 87.151 82.5974C87.3208 83.0355 87.4058 83.5749 87.4058 84.2157V84.6627H82.1127V83.7507H86.3329C86.3329 83.3633 86.2554 83.0176 86.1004 82.7136C85.9484 82.4096 85.7308 82.1697 85.4477 81.9938C85.1676 81.818 84.8367 81.7301 84.4553 81.7301C84.035 81.7301 83.6714 81.8344 83.3645 82.043C83.0605 82.2487 82.8265 82.5169 82.6626 82.8477C82.4987 83.1785 82.4167 83.5332 82.4167 83.9117V84.5197C82.4167 85.0382 82.5061 85.4778 82.685 85.8385C82.8668 86.1961 83.1186 86.4688 83.4405 86.6565C83.7623 86.8413 84.1364 86.9337 84.5626 86.9337C84.8397 86.9337 85.0901 86.895 85.3136 86.8175C85.5401 86.737 85.7353 86.6178 85.8992 86.4598C86.0631 86.2989 86.1898 86.0992 86.2792 85.8608L87.2985 86.1469C87.1912 86.4926 87.0109 86.7966 86.7576 87.0589C86.5042 87.3182 86.1913 87.5208 85.8188 87.6669C85.4462 87.8099 85.0275 87.8815 84.5626 87.8815ZM40.1383 102.738V93.5829H43.2319C43.9472 93.5829 44.5343 93.7051 44.9933 93.9495C45.4522 94.1909 45.792 94.5232 46.0125 94.9464C46.2331 95.3696 46.3434 95.8509 46.3434 96.3903C46.3434 96.9298 46.2331 97.4081 46.0125 97.8254C45.792 98.2426 45.4537 98.5704 44.9977 98.8089C44.5418 99.0443 43.9591 99.162 43.2498 99.162H40.7463V98.1606H43.214C43.7028 98.1606 44.0962 98.0891 44.3942 97.9461C44.6952 97.803 44.9128 97.6003 45.0469 97.3381C45.184 97.0728 45.2526 96.7569 45.2526 96.3903C45.2526 96.0238 45.184 95.7034 45.0469 95.4292C44.9098 95.155 44.6908 94.9434 44.3898 94.7944C44.0887 94.6424 43.6909 94.5664 43.1961 94.5664H41.247V102.738H40.1383ZM44.4479 98.6256L46.701 102.738H45.4135L43.1961 98.6256H44.4479ZM50.8529 102.881C50.1913 102.881 49.6206 102.735 49.1408 102.443C48.6639 102.148 48.2958 101.737 48.0365 101.21C47.7802 100.679 47.6521 100.062 47.6521 99.3587C47.6521 98.6554 47.7802 98.0355 48.0365 97.499C48.2958 96.9596 48.6565 96.5393 49.1184 96.2383C49.5833 95.9343 50.1257 95.7823 50.7457 95.7823C51.1033 95.7823 51.4565 95.842 51.8052 95.9612C52.1539 96.0804 52.4713 96.2741 52.7574 96.5423C53.0435 96.8076 53.2715 97.1593 53.4414 97.5974C53.6112 98.0355 53.6962 98.5749 53.6962 99.2157V99.6627H48.4031V98.7507H52.6233C52.6233 98.3633 52.5458 98.0176 52.3908 97.7136C52.2388 97.4096 52.0212 97.1697 51.7381 96.9938C51.4579 96.818 51.1271 96.7301 50.7457 96.7301C50.3254 96.7301 49.9618 96.8344 49.6549 97.043C49.3509 97.2487 49.1169 97.5169 48.953 97.8477C48.7891 98.1785 48.7071 98.5332 48.7071 98.9117V99.5197C48.7071 100.038 48.7965 100.478 48.9753 100.838C49.1571 101.196 49.409 101.469 49.7309 101.657C50.0527 101.841 50.4268 101.934 50.8529 101.934C51.1301 101.934 51.3805 101.895 51.604 101.817C51.8305 101.737 52.0257 101.618 52.1896 101.46C52.3535 101.299 52.4802 101.099 52.5696 100.861L53.5889 101.147C53.4816 101.493 53.3013 101.797 53.0479 102.059C52.7946 102.318 52.4817 102.521 52.1091 102.667C51.7366 102.81 51.3179 102.881 50.8529 102.881ZM58.0728 105.456C57.5631 105.456 57.125 105.391 56.7584 105.26C56.3919 105.132 56.0864 104.962 55.842 104.75C55.6006 104.541 55.4084 104.318 55.2653 104.08L56.1058 103.489C56.2011 103.615 56.3218 103.758 56.4679 103.919C56.6139 104.083 56.8136 104.224 57.0669 104.343C57.3232 104.465 57.6585 104.527 58.0728 104.527C58.6271 104.527 59.0846 104.392 59.4452 104.124C59.8058 103.856 59.9861 103.436 59.9861 102.864V101.469H59.8967C59.8192 101.594 59.709 101.749 59.5659 101.934C59.4258 102.116 59.2232 102.278 58.9579 102.421C58.6956 102.561 58.341 102.631 57.8939 102.631C57.3396 102.631 56.8419 102.5 56.4008 102.238C55.9627 101.975 55.6155 101.594 55.3592 101.093C55.1059 100.593 54.9792 99.9846 54.9792 99.2693C54.9792 98.566 55.1029 97.9535 55.3502 97.432C55.5976 96.9074 55.9418 96.5021 56.3829 96.216C56.824 95.9269 57.3336 95.7823 57.9118 95.7823C58.3589 95.7823 58.7135 95.8569 58.9758 96.0059C59.241 96.1519 59.4437 96.3188 59.5838 96.5066C59.7268 96.6913 59.8371 96.8433 59.9146 96.9626H60.0219V95.8718H61.0412V102.935C61.0412 103.525 60.907 104.005 60.6388 104.375C60.3736 104.747 60.0159 105.02 59.5659 105.193C59.1189 105.369 58.6211 105.456 58.0728 105.456ZM58.037 101.683C58.4602 101.683 58.8178 101.587 59.1099 101.393C59.402 101.199 59.624 100.92 59.776 100.557C59.928 100.193 60.004 99.7581 60.004 99.2514C60.004 98.7567 59.9295 98.3201 59.7805 97.9416C59.6315 97.5631 59.4109 97.2665 59.1189 97.052C58.8268 96.8374 58.4662 96.7301 58.037 96.7301C57.5899 96.7301 57.2174 96.8433 56.9194 97.0698C56.6243 97.2963 56.4023 97.6003 56.2533 97.9818C56.1072 98.3633 56.0342 98.7865 56.0342 99.2514C56.0342 99.7283 56.1087 100.15 56.2577 100.517C56.4097 100.88 56.6333 101.166 56.9283 101.375C57.2264 101.581 57.5959 101.683 58.037 101.683ZM64.9931 102.899C64.5579 102.899 64.163 102.817 63.8084 102.653C63.4537 102.487 63.1721 102.247 62.9635 101.934C62.7548 101.618 62.6505 101.236 62.6505 100.789C62.6505 100.396 62.728 100.077 62.883 99.8326C63.038 99.5852 63.2451 99.3915 63.5044 99.2514C63.7637 99.1114 64.0498 99.007 64.3627 98.9385C64.6786 98.867 64.996 98.8103 65.3149 98.7686C65.7322 98.715 66.0704 98.6747 66.3297 98.6479C66.592 98.6181 66.7827 98.5689 66.9019 98.5004C67.0241 98.4318 67.0852 98.3126 67.0852 98.1428V98.107C67.0852 97.6659 66.9645 97.3232 66.7231 97.0788C66.4847 96.8344 66.1226 96.7122 65.6368 96.7122C65.1331 96.7122 64.7382 96.8225 64.4521 97.043C64.166 97.2636 63.9648 97.499 63.8486 97.7494L62.8472 97.3917C63.026 96.9745 63.2645 96.6496 63.5625 96.4172C63.8635 96.1817 64.1913 96.0178 64.546 95.9254C64.9036 95.83 65.2553 95.7823 65.601 95.7823C65.8216 95.7823 66.0749 95.8092 66.361 95.8628C66.6501 95.9135 66.9288 96.0193 67.197 96.1802C67.4682 96.3412 67.6932 96.5841 67.872 96.9089C68.0509 97.2338 68.1403 97.6689 68.1403 98.2143V102.738H67.0852V101.809H67.0316C66.9601 101.958 66.8408 102.117 66.674 102.287C66.5071 102.457 66.285 102.601 66.0079 102.721C65.7307 102.84 65.3924 102.899 64.9931 102.899ZM65.154 101.952C65.5712 101.952 65.9229 101.87 66.209 101.706C66.4981 101.542 66.7157 101.33 66.8617 101.071C67.0107 100.812 67.0852 100.539 67.0852 100.253V99.2872C67.0405 99.3408 66.9422 99.39 66.7902 99.4347C66.6412 99.4764 66.4683 99.5137 66.2716 99.5465C66.0779 99.5763 65.8886 99.6031 65.7039 99.627C65.5221 99.6478 65.3745 99.6657 65.2613 99.6806C64.9871 99.7164 64.7308 99.7745 64.4924 99.8549C64.2569 99.9324 64.0662 100.05 63.9201 100.208C63.7771 100.363 63.7056 100.575 63.7056 100.843C63.7056 101.21 63.8412 101.487 64.1124 101.674C64.3866 101.859 64.7338 101.952 65.154 101.952ZM71.121 93.5829V102.738H70.0659V93.5829H71.121ZM75.8429 102.881C75.223 102.881 74.6791 102.734 74.2112 102.439C73.7462 102.144 73.3826 101.731 73.1204 101.201C72.8611 100.67 72.7314 100.05 72.7314 99.3408C72.7314 98.6256 72.8611 98.0012 73.1204 97.4677C73.3826 96.9342 73.7462 96.52 74.2112 96.2249C74.6791 95.9299 75.223 95.7823 75.8429 95.7823C76.4628 95.7823 77.0052 95.9299 77.4702 96.2249C77.9381 96.52 78.3017 96.9342 78.5609 97.4677C78.8232 98.0012 78.9543 98.6256 78.9543 99.3408C78.9543 100.05 78.8232 100.67 78.5609 101.201C78.3017 101.731 77.9381 102.144 77.4702 102.439C77.0052 102.734 76.4628 102.881 75.8429 102.881ZM75.8429 101.934C76.3138 101.934 76.7012 101.813 77.0052 101.572C77.3092 101.33 77.5342 101.013 77.6803 100.619C77.8263 100.226 77.8993 99.7998 77.8993 99.3408C77.8993 98.8819 77.8263 98.4542 77.6803 98.0578C77.5342 97.6614 77.3092 97.3411 77.0052 97.0967C76.7012 96.8523 76.3138 96.7301 75.8429 96.7301C75.372 96.7301 74.9846 96.8523 74.6806 97.0967C74.3766 97.3411 74.1516 97.6614 74.0055 98.0578C73.8595 98.4542 73.7865 98.8819 73.7865 99.3408C73.7865 99.7998 73.8595 100.226 74.0055 100.619C74.1516 101.013 74.3766 101.33 74.6806 101.572C74.9846 101.813 75.372 101.934 75.8429 101.934ZM85.4287 97.4096L84.481 97.6778C84.4214 97.5199 84.3334 97.3664 84.2172 97.2174C84.104 97.0654 83.949 96.9402 83.7523 96.8418C83.5556 96.7435 83.3037 96.6943 82.9968 96.6943C82.5765 96.6943 82.2264 96.7912 81.9462 96.9849C81.669 97.1756 81.5305 97.4185 81.5305 97.7136C81.5305 97.9759 81.6258 98.183 81.8166 98.335C82.0073 98.487 82.3053 98.6136 82.7107 98.715L83.7299 98.9653C84.3439 99.1143 84.8014 99.3423 85.1024 99.6493C85.4034 99.9533 85.5539 100.345 85.5539 100.825C85.5539 101.218 85.4406 101.57 85.2141 101.88C84.9906 102.19 84.6777 102.434 84.2753 102.613C83.873 102.792 83.4051 102.881 82.8716 102.881C82.1712 102.881 81.5916 102.729 81.1326 102.425C80.6736 102.121 80.383 101.677 80.2608 101.093L81.2622 100.843C81.3576 101.212 81.5379 101.49 81.8032 101.674C82.0714 101.859 82.4216 101.952 82.8537 101.952C83.3455 101.952 83.7359 101.847 84.025 101.639C84.3171 101.427 84.4631 101.174 84.4631 100.879C84.4631 100.64 84.3796 100.441 84.2127 100.28C84.0458 100.116 83.7895 99.9935 83.4438 99.9131L82.2994 99.6448C81.6705 99.4958 81.2086 99.2648 80.9135 98.9519C80.6215 98.636 80.4754 98.2411 80.4754 97.7672C80.4754 97.3798 80.5842 97.0371 80.8018 96.739C81.0223 96.441 81.3218 96.207 81.7003 96.0372C82.0818 95.8673 82.514 95.7823 82.9968 95.7823C83.6763 95.7823 84.2098 95.9314 84.5972 96.2294C84.9876 96.5274 85.2648 96.9208 85.4287 97.4096Z" fill="white"/>
<path fill-rule="evenodd" clip-rule="evenodd" d="M65.9364 37.6666C68.3177 37.6666 70.2697 39.5711 70.2697 41.8943C70.2697 42.6266 70.0728 43.3158 69.7318 43.9181L69.577 44.1707H72.9364C73.7989 44.1707 74.509 44.8109 74.5944 45.6305L74.603 45.7967V49.6991C74.603 50.5406 73.9468 51.2334 73.1067 51.3168L72.9364 51.3252H63.603V44.1707H61.603V51.3252H52.2697C51.4072 51.3252 50.697 50.6849 50.6116 49.8653L50.603 49.6991V45.7967C50.603 44.9552 51.2593 44.2624 52.0994 44.1791L52.2697 44.1707H55.6291C55.1935 43.5119 54.9364 42.7313 54.9364 41.8943C54.9364 39.6512 56.7561 37.7985 59.0249 37.6734L59.2697 37.6666C60.6353 37.6666 61.807 38.3317 62.603 39.3041C63.3422 38.4011 64.4053 37.7632 65.6468 37.6767L65.9364 37.6666ZM72.4697 46.304H65.7364V49.1906H72.4697V46.304ZM59.4697 46.304H52.7364V49.1906H59.4697V46.304ZM67.3007 43.7478L67.3794 43.6904C67.9234 43.2756 68.2697 42.6286 68.2697 41.8943C68.2697 40.6259 67.2364 39.6178 65.9364 39.6178C64.8416 39.6178 63.936 40.3327 63.6773 41.3159L63.6623 41.3764L63.603 44.1707L64.1159 44.1707C65.1915 44.1706 66.2624 44.0284 67.3007 43.7478ZM57.9053 43.7478C58.9437 44.0284 60.0146 44.1706 61.0902 44.1707L61.603 44.1707V42.0373L61.5288 41.3159C61.2701 40.3327 60.3645 39.6178 59.2697 39.6178C57.9697 39.6178 56.9364 40.6259 56.9364 41.8943C56.9364 42.6225 57.277 43.2649 57.8132 43.68L57.9053 43.7478ZM61.603 53.2764V64.3333H56.2697C53.9653 64.3333 52.0711 62.5628 51.9432 60.3449L51.9364 60.1056V53.2764H61.603ZM59.4697 62.1986V55.4093H54.0697V60.1056C54.0697 61.1807 54.9438 62.0932 56.0687 62.1912L56.2697 62.2L59.4697 62.1986ZM73.2697 53.2764V60.1056C73.2697 62.3538 71.455 64.2018 69.1816 64.3266L68.9364 64.3333H63.603V53.2764H73.2697ZM71.1364 55.4093H65.7364V62.1986L68.9364 62.2C70.0887 62.2 71.0267 61.3472 71.1274 60.2935L71.1364 60.1056V55.4093Z" fill="white"/>
</g>
<defs>
<filter id="filter0_bii_165_496" x="-64.5652" y="-64.6463" width="254.337" height="245.395" filterUnits="userSpaceOnUse" color-interpolation-filters="sRGB">
<feFlood flood-opacity="0" result="BackgroundImageFix"/>
<feGaussianBlur in="BackgroundImageFix" stdDeviation="32.5124"/>
<feComposite in2="SourceAlpha" operator="in" result="effect1_backgroundBlur_165_496"/>
<feBlend mode="normal" in="SourceGraphic" in2="effect1_backgroundBlur_165_496" result="shape"/>
<feColorMatrix in="SourceAlpha" type="matrix" values="0 0 0 0 0 0 0 0 0 0 0 0 0 0 0 0 0 0 127 0" result="hardAlpha"/>
<feOffset dy="2.02763"/>
<feGaussianBlur stdDeviation="1.01381"/>
<feComposite in2="hardAlpha" operator="arithmetic" k2="-1" k3="1"/>
<feColorMatrix type="matrix" values="0 0 0 0 1 0 0 0 0 1 0 0 0 0 1 0 0 0 0.15 0"/>
<feBlend mode="normal" in2="shape" result="effect2_innerShadow_165_496"/>
<feColorMatrix in="SourceAlpha" type="matrix" values="0 0 0 0 0 0 0 0 0 0 0 0 0 0 0 0 0 0 127 0" result="hardAlpha"/>
<feOffset/>
<feGaussianBlur stdDeviation="15.2072"/>
<feComposite in2="hardAlpha" operator="arithmetic" k2="-1" k3="1"/>
<feColorMatrix type="matrix" values="0 0 0 0 1 0 0 0 0 1 0 0 0 0 1 0 0 0 0.05 0"/>
<feBlend mode="normal" in2="effect2_innerShadow_165_496" result="effect3_innerShadow_165_496"/>
</filter>
</defs>
</svg>
