<svg width="125" height="116" viewBox="0 0 125 116" fill="none" xmlns="http://www.w3.org/2000/svg">
<g filter="url(#filter0_bii_165_492)">
<rect x="0.459473" y="0.255615" width="124.287" height="115.346" rx="8.94152" fill="white" fill-opacity="0.03"/>
<g clip-path="url(#clip0_165_492)">
<path d="M74.5687 50.7319V60.7968C74.5687 61.5305 73.9971 62.0868 73.3387 62.0868H67.3987C66.7403 62.0868 66.1687 61.5305 66.1687 60.7968V44.8022L73.963 49.6205C74.3325 49.8489 74.5687 50.2682 74.5687 50.7319Z" stroke="white" stroke-width="1.5"/>
<path d="M54.5361 39.1368C54.5361 38.9664 54.6645 38.8668 54.7761 38.8668H65.6661C65.7777 38.8668 65.9061 38.9664 65.9061 39.1368V61.5768C65.9061 61.7472 65.7777 61.8468 65.6661 61.8468H54.7761C54.6645 61.8468 54.5361 61.7472 54.5361 61.5768V39.1368Z" stroke="white" stroke-width="1.5"/>
<path d="M50.5762 53.2719C50.5762 53.1208 50.6805 53.0208 50.7831 53.0045L61.6731 51.2783C61.7916 51.2595 61.9462 51.3552 61.9462 51.5457V61.5768C61.9462 61.7472 61.8178 61.8468 61.7062 61.8468H50.8162C50.7046 61.8468 50.5762 61.7472 50.5762 61.5768V53.2719Z" fill="#102442" stroke="white" stroke-width="1.5"/>
</g>
<path d="M31.7117 90.5879V81.4324H32.8204V85.5094H37.7021V81.4324H38.8108V90.5879H37.7021V86.4929H32.8204V90.5879H31.7117ZM43.6769 90.7309C43.057 90.7309 42.5131 90.5834 42.0452 90.2884C41.5803 89.9933 41.2167 89.5805 40.9544 89.05C40.6951 88.5196 40.5655 87.8996 40.5655 87.1903C40.5655 86.4751 40.6951 85.8507 40.9544 85.3172C41.2167 84.7837 41.5803 84.3695 42.0452 84.0744C42.5131 83.7794 43.057 83.6318 43.6769 83.6318C44.2968 83.6318 44.8393 83.7794 45.3042 84.0744C45.7721 84.3695 46.1357 84.7837 46.395 85.3172C46.6572 85.8507 46.7884 86.4751 46.7884 87.1903C46.7884 87.8996 46.6572 88.5196 46.395 89.05C46.1357 89.5805 45.7721 89.9933 45.3042 90.2884C44.8393 90.5834 44.2968 90.7309 43.6769 90.7309ZM43.6769 89.7832C44.1478 89.7832 44.5353 89.6625 44.8393 89.4211C45.1432 89.1797 45.3683 88.8623 45.5143 88.4689C45.6603 88.0755 45.7333 87.6493 45.7333 87.1903C45.7333 86.7314 45.6603 86.3037 45.5143 85.9073C45.3683 85.5109 45.1432 85.1905 44.8393 84.9462C44.5353 84.7018 44.1478 84.5796 43.6769 84.5796C43.206 84.5796 42.8186 84.7018 42.5146 84.9462C42.2106 85.1905 41.9856 85.5109 41.8396 85.9073C41.6935 86.3037 41.6205 86.7314 41.6205 87.1903C41.6205 87.6493 41.6935 88.0755 41.8396 88.4689C41.9856 88.8623 42.2106 89.1797 42.5146 89.4211C42.8186 89.6625 43.206 89.7832 43.6769 89.7832ZM53.2627 85.2591L52.315 85.5273C52.2554 85.3694 52.1675 85.2159 52.0512 85.0669C51.938 84.9149 51.783 84.7897 51.5863 84.6913C51.3896 84.593 51.1378 84.5438 50.8308 84.5438C50.4106 84.5438 50.0604 84.6407 49.7802 84.8344C49.5031 85.0251 49.3645 85.268 49.3645 85.5631C49.3645 85.8253 49.4599 86.0325 49.6506 86.1845C49.8413 86.3365 50.1394 86.4631 50.5447 86.5645L51.564 86.8148C52.1779 86.9638 52.6354 87.1918 52.9364 87.4988C53.2374 87.8028 53.3879 88.1947 53.3879 88.6745C53.3879 89.0679 53.2747 89.4196 53.0482 89.7296C52.8246 90.0395 52.5117 90.2839 52.1094 90.4627C51.707 90.6415 51.2391 90.7309 50.7056 90.7309C50.0053 90.7309 49.4256 90.5789 48.9666 90.275C48.5077 89.971 48.2171 89.5269 48.0949 88.9428L49.0963 88.6924C49.1916 89.062 49.3719 89.3391 49.6372 89.5239C49.9054 89.7087 50.2556 89.8011 50.6878 89.8011C51.1795 89.8011 51.5699 89.6968 51.859 89.4882C52.1511 89.2766 52.2971 89.0232 52.2971 88.7282C52.2971 88.4897 52.2137 88.2901 52.0468 88.1291C51.8799 87.9652 51.6236 87.843 51.2779 87.7626L50.1334 87.4943C49.5046 87.3453 49.0426 87.1143 48.7476 86.8014C48.4555 86.4855 48.3095 86.0906 48.3095 85.6167C48.3095 85.2293 48.4182 84.8865 48.6358 84.5885C48.8563 84.2905 49.1559 84.0565 49.5344 83.8866C49.9159 83.7168 50.348 83.6318 50.8308 83.6318C51.5103 83.6318 52.0438 83.7808 52.4312 84.0789C52.8217 84.3769 53.0988 84.7703 53.2627 85.2591ZM54.9761 93.1629V83.7212H55.9953V84.812H56.1205C56.198 84.6928 56.3053 84.5408 56.4424 84.356C56.5824 84.1683 56.7821 84.0014 57.0414 83.8554C57.3037 83.7063 57.6583 83.6318 58.1054 83.6318C58.6836 83.6318 59.1932 83.7764 59.6343 84.0655C60.0754 84.3546 60.4196 84.7644 60.667 85.2948C60.9143 85.8253 61.038 86.4512 61.038 87.1724C61.038 87.8996 60.9143 88.53 60.667 89.0635C60.4196 89.594 60.0769 90.0052 59.6388 90.2973C59.2007 90.5864 58.6955 90.7309 58.1233 90.7309C57.6822 90.7309 57.329 90.6579 57.0638 90.5119C56.7985 90.3629 56.5944 90.1945 56.4513 90.0067C56.3083 89.816 56.198 89.658 56.1205 89.5329H56.0311V93.1629H54.9761ZM56.0132 87.1546C56.0132 87.6731 56.0892 88.1306 56.2412 88.527C56.3932 88.9204 56.6152 89.2289 56.9073 89.4524C57.1994 89.6729 57.557 89.7832 57.9802 89.7832C58.4213 89.7832 58.7894 89.667 59.0844 89.4345C59.3825 89.1991 59.606 88.8831 59.755 88.4868C59.907 88.0874 59.983 87.6433 59.983 87.1546C59.983 86.6718 59.9085 86.2366 59.7595 85.8492C59.6134 85.4588 59.3914 85.1503 59.0934 84.9238C58.7983 84.6943 58.4273 84.5796 57.9802 84.5796C57.551 84.5796 57.1904 84.6884 56.8984 84.9059C56.6063 85.1205 56.3857 85.4215 56.2367 85.809C56.0877 86.1934 56.0132 86.642 56.0132 87.1546ZM65.5264 90.7309C64.8647 90.7309 64.294 90.5849 63.8142 90.2928C63.3373 89.9978 62.9693 89.5865 62.71 89.059C62.4537 88.5285 62.3255 87.9116 62.3255 87.2082C62.3255 86.5049 62.4537 85.885 62.71 85.3485C62.9693 84.8091 63.3299 84.3888 63.7918 84.0878C64.2568 83.7838 64.7992 83.6318 65.4191 83.6318C65.7767 83.6318 66.1299 83.6914 66.4786 83.8107C66.8273 83.9299 67.1447 84.1236 67.4308 84.3918C67.7169 84.6571 67.9449 85.0087 68.1148 85.4468C68.2847 85.885 68.3696 86.4244 68.3696 87.0652V87.5122H63.0766V86.6002H67.2967C67.2967 86.2128 67.2192 85.8671 67.0642 85.5631C66.9122 85.2591 66.6947 85.0192 66.4115 84.8433C66.1314 84.6675 65.8006 84.5796 65.4191 84.5796C64.9989 84.5796 64.6353 84.6839 64.3283 84.8925C64.0243 85.0981 63.7903 85.3664 63.6264 85.6972C63.4625 86.028 63.3805 86.3827 63.3805 86.7612V87.3691C63.3805 87.8877 63.47 88.3273 63.6488 88.6879C63.8306 89.0456 64.0824 89.3183 64.4043 89.506C64.7262 89.6908 65.1002 89.7832 65.5264 89.7832C65.8035 89.7832 66.0539 89.7445 66.2774 89.667C66.5039 89.5865 66.6991 89.4673 66.863 89.3093C67.027 89.1484 67.1536 88.9487 67.243 88.7103L68.2623 88.9964C68.155 89.3421 67.9747 89.6461 67.7214 89.9084C67.468 90.1677 67.1551 90.3703 66.7826 90.5164C66.41 90.6594 65.9913 90.7309 65.5264 90.7309ZM72.5674 90.7309C71.9951 90.7309 71.49 90.5864 71.0519 90.2973C70.6138 90.0052 70.271 89.594 70.0237 89.0635C69.7763 88.53 69.6526 87.8996 69.6526 87.1724C69.6526 86.4512 69.7763 85.8253 70.0237 85.2948C70.271 84.7644 70.6153 84.3546 71.0564 84.0655C71.4974 83.7764 72.0071 83.6318 72.5853 83.6318C73.0323 83.6318 73.3855 83.7063 73.6448 83.8554C73.907 84.0014 74.1067 84.1683 74.2438 84.356C74.3839 84.5408 74.4927 84.6928 74.5701 84.812H74.6596V81.4324H75.7146V90.5879H74.6953V89.5329H74.5701C74.4927 89.658 74.3824 89.816 74.2393 90.0067C74.0963 90.1945 73.8921 90.3629 73.6269 90.5119C73.3616 90.6579 73.0085 90.7309 72.5674 90.7309ZM72.7104 89.7832C73.1336 89.7832 73.4913 89.6729 73.7833 89.4524C74.0754 89.2289 74.2974 88.9204 74.4494 88.527C74.6014 88.1306 74.6774 87.6731 74.6774 87.1546C74.6774 86.642 74.6029 86.1934 74.4539 85.809C74.3049 85.4215 74.0844 85.1205 73.7923 84.9059C73.5002 84.6884 73.1396 84.5796 72.7104 84.5796C72.2634 84.5796 71.8908 84.6943 71.5928 84.9238C71.2978 85.1503 71.0757 85.4588 70.9267 85.8492C70.7807 86.2366 70.7077 86.6718 70.7077 87.1546C70.7077 87.6433 70.7822 88.0874 70.9312 88.4868C71.0832 88.8831 71.3067 89.1991 71.6017 89.4345C71.8998 89.667 72.2693 89.7832 72.7104 89.7832ZM79.814 90.7488C79.3789 90.7488 78.984 90.6669 78.6293 90.503C78.2747 90.3361 77.993 90.0961 77.7844 89.7832C77.5758 89.4673 77.4715 89.0858 77.4715 88.6388C77.4715 88.2454 77.549 87.9265 77.7039 87.6821C77.8589 87.4347 78.0661 87.241 78.3253 87.1009C78.5846 86.9608 78.8707 86.8565 79.1837 86.788C79.4996 86.7165 79.817 86.6598 80.1359 86.6181C80.5531 86.5645 80.8914 86.5242 81.1507 86.4974C81.4129 86.4676 81.6037 86.4184 81.7229 86.3499C81.8451 86.2813 81.9062 86.1621 81.9062 85.9922V85.9565C81.9062 85.5154 81.7855 85.1727 81.5441 84.9283C81.3057 84.6839 80.9435 84.5617 80.4578 84.5617C79.9541 84.5617 79.5592 84.672 79.2731 84.8925C78.987 85.113 78.7858 85.3485 78.6696 85.5988L77.6682 85.2412C77.847 84.824 78.0854 84.4991 78.3835 84.2666C78.6845 84.0312 79.0123 83.8673 79.367 83.7749C79.7246 83.6795 80.0763 83.6318 80.422 83.6318C80.6425 83.6318 80.8959 83.6587 81.182 83.7123C81.4711 83.763 81.7497 83.8688 82.018 84.0297C82.2892 84.1906 82.5142 84.4335 82.693 84.7584C82.8718 85.0832 82.9612 85.5184 82.9612 86.0638V90.5879H81.9062V89.658H81.8525C81.781 89.807 81.6618 89.9665 81.4949 90.1364C81.328 90.3063 81.106 90.4508 80.8288 90.57C80.5516 90.6892 80.2134 90.7488 79.814 90.7488ZM79.9749 89.8011C80.3922 89.8011 80.7439 89.7191 81.03 89.5552C81.3191 89.3913 81.5366 89.1797 81.6827 88.9204C81.8317 88.6611 81.9062 88.3884 81.9062 88.1023V87.1367C81.8615 87.1903 81.7631 87.2395 81.6111 87.2842C81.4621 87.3259 81.2893 87.3632 81.0926 87.396C80.8988 87.4258 80.7096 87.4526 80.5248 87.4764C80.343 87.4973 80.1955 87.5152 80.0822 87.5301C79.808 87.5658 79.5517 87.624 79.3133 87.7044C79.0779 87.7819 78.8871 87.8996 78.7411 88.0576C78.598 88.2126 78.5265 88.4242 78.5265 88.6924C78.5265 89.059 78.6621 89.3362 78.9333 89.5239C79.2075 89.7087 79.5547 89.8011 79.9749 89.8011ZM84.8869 83.7212H85.9419V91.0886C85.9419 91.5118 85.8689 91.8784 85.7229 92.1883C85.5798 92.4983 85.3622 92.7382 85.0702 92.9081C84.7811 93.0779 84.416 93.1629 83.9749 93.1629C83.9391 93.1629 83.9034 93.1629 83.8676 93.1629C83.8318 93.1629 83.7961 93.1629 83.7603 93.1629V92.1794C83.7961 92.1794 83.8289 92.1794 83.8587 92.1794C83.8885 92.1794 83.9213 92.1794 83.957 92.1794C84.2789 92.1794 84.5143 92.084 84.6634 91.8933C84.8124 91.7055 84.8869 91.4373 84.8869 91.0886V83.7212ZM85.4055 82.5768C85.1998 82.5768 85.0225 82.5068 84.8735 82.3667C84.7274 82.2266 84.6544 82.0582 84.6544 81.8615C84.6544 81.6648 84.7274 81.4964 84.8735 81.3564C85.0225 81.2163 85.1998 81.1462 85.4055 81.1462C85.6111 81.1462 85.7869 81.2163 85.933 81.3564C86.082 81.4964 86.1565 81.6648 86.1565 81.8615C86.1565 82.0582 86.082 82.2266 85.933 82.3667C85.7869 82.5068 85.6111 82.5768 85.4055 82.5768ZM90.7533 90.7309C90.0916 90.7309 89.5209 90.5849 89.0411 90.2928C88.5642 89.9978 88.1961 89.5865 87.9369 89.059C87.6806 88.5285 87.5524 87.9116 87.5524 87.2082C87.5524 86.5049 87.6806 85.885 87.9369 85.3485C88.1961 84.8091 88.5568 84.3888 89.0187 84.0878C89.4836 83.7838 90.0261 83.6318 90.646 83.6318C91.0036 83.6318 91.3568 83.6914 91.7055 83.8107C92.0542 83.9299 92.3716 84.1236 92.6577 84.3918C92.9438 84.6571 93.1718 85.0087 93.3417 85.4468C93.5115 85.885 93.5965 86.4244 93.5965 87.0652V87.5122H88.3034V86.6002H92.5236C92.5236 86.2128 92.4461 85.8671 92.2911 85.5631C92.1391 85.2591 91.9215 85.0192 91.6384 84.8433C91.3583 84.6675 91.0274 84.5796 90.646 84.5796C90.2257 84.5796 89.8621 84.6839 89.5552 84.8925C89.2512 85.0981 89.0172 85.3664 88.8533 85.6972C88.6894 86.028 88.6074 86.3827 88.6074 86.7612V87.3691C88.6074 87.8877 88.6968 88.3273 88.8757 88.6879C89.0575 89.0456 89.3093 89.3183 89.6312 89.506C89.953 89.6908 90.3271 89.7832 90.7533 89.7832C91.0304 89.7832 91.2808 89.7445 91.5043 89.667C91.7308 89.5865 91.926 89.4673 92.0899 89.3093C92.2538 89.1484 92.3805 88.9487 92.4699 88.7103L93.4892 88.9964C93.3819 89.3421 93.2016 89.6461 92.9483 89.9084C92.6949 90.1677 92.382 90.3703 92.0095 90.5164C91.6369 90.6594 91.2182 90.7309 90.7533 90.7309Z" fill="white"/>
</g>
<defs>
<filter id="filter0_bii_165_492" x="-64.5652" y="-64.7691" width="254.337" height="245.395" filterUnits="userSpaceOnUse" color-interpolation-filters="sRGB">
<feFlood flood-opacity="0" result="BackgroundImageFix"/>
<feGaussianBlur in="BackgroundImageFix" stdDeviation="32.5124"/>
<feComposite in2="SourceAlpha" operator="in" result="effect1_backgroundBlur_165_492"/>
<feBlend mode="normal" in="SourceGraphic" in2="effect1_backgroundBlur_165_492" result="shape"/>
<feColorMatrix in="SourceAlpha" type="matrix" values="0 0 0 0 0 0 0 0 0 0 0 0 0 0 0 0 0 0 127 0" result="hardAlpha"/>
<feOffset dy="2.02763"/>
<feGaussianBlur stdDeviation="1.01381"/>
<feComposite in2="hardAlpha" operator="arithmetic" k2="-1" k3="1"/>
<feColorMatrix type="matrix" values="0 0 0 0 1 0 0 0 0 1 0 0 0 0 1 0 0 0 0.15 0"/>
<feBlend mode="normal" in2="shape" result="effect2_innerShadow_165_492"/>
<feColorMatrix in="SourceAlpha" type="matrix" values="0 0 0 0 0 0 0 0 0 0 0 0 0 0 0 0 0 0 127 0" result="hardAlpha"/>
<feOffset/>
<feGaussianBlur stdDeviation="15.2072"/>
<feComposite in2="hardAlpha" operator="arithmetic" k2="-1" k3="1"/>
<feColorMatrix type="matrix" values="0 0 0 0 1 0 0 0 0 1 0 0 0 0 1 0 0 0 0.05 0"/>
<feBlend mode="normal" in2="effect2_innerShadow_165_492" result="effect3_innerShadow_165_492"/>
</filter>
<clipPath id="clip0_165_492">
<rect width="27" height="25" fill="white" transform="translate(49.103 37.9285)"/>
</clipPath>
</defs>
</svg>
