<svg width="125" height="116" viewBox="0 0 125 116" fill="none" xmlns="http://www.w3.org/2000/svg">
<g filter="url(#filter0_bii_165_494)">
<rect x="0.253418" y="0.255615" width="124.287" height="115.346" rx="8.94152" fill="white" fill-opacity="0.03"/>
<path d="M40.2 81.3208H39.0914C39.0258 81.0019 38.9111 80.7218 38.7471 80.4804C38.5862 80.239 38.3895 80.0363 38.157 79.8724C37.9276 79.7055 37.6727 79.5803 37.3926 79.4969C37.1124 79.4134 36.8204 79.3717 36.5164 79.3717C35.962 79.3717 35.4598 79.5118 35.0098 79.7919C34.5628 80.0721 34.2066 80.4848 33.9414 81.0302C33.6791 81.5756 33.548 82.2447 33.548 83.0375C33.548 83.8302 33.6791 84.4993 33.9414 85.0447C34.2066 85.5901 34.5628 86.0029 35.0098 86.283C35.4598 86.5632 35.962 86.7033 36.5164 86.7033C36.8204 86.7033 37.1124 86.6615 37.3926 86.5781C37.6727 86.4946 37.9276 86.371 38.157 86.207C38.3895 86.0401 38.5862 85.836 38.7471 85.5946C38.9111 85.3502 39.0258 85.07 39.0914 84.7541H40.2C40.1166 85.222 39.9646 85.6408 39.7441 86.0103C39.5235 86.3799 39.2493 86.6943 38.9215 86.9536C38.5937 87.2099 38.2256 87.4051 37.8173 87.5392C37.412 87.6734 36.9783 87.7404 36.5164 87.7404C35.7355 87.7404 35.0411 87.5497 34.4331 87.1682C33.8251 86.7867 33.3468 86.2443 32.9981 85.5409C32.6494 84.8376 32.4751 84.0031 32.4751 83.0375C32.4751 82.0718 32.6494 81.2374 32.9981 80.534C33.3468 79.8306 33.8251 79.2882 34.4331 78.9068C35.0411 78.5253 35.7355 78.3345 36.5164 78.3345C36.9783 78.3345 37.412 78.4016 37.8173 78.5357C38.2256 78.6698 38.5937 78.8665 38.9215 79.1258C39.2493 79.3821 39.5235 79.695 39.7441 80.0646C39.9646 80.4312 40.1166 80.8499 40.2 81.3208ZM44.6381 87.7583C44.0182 87.7583 43.4743 87.6108 43.0064 87.3157C42.5415 87.0207 42.1779 86.6079 41.9156 86.0774C41.6563 85.5469 41.5267 84.927 41.5267 84.2177C41.5267 83.5024 41.6563 82.878 41.9156 82.3445C42.1779 81.8111 42.5415 81.3968 43.0064 81.1018C43.4743 80.8067 44.0182 80.6592 44.6381 80.6592C45.258 80.6592 45.8004 80.8067 46.2654 81.1018C46.7333 81.3968 47.0969 81.8111 47.3562 82.3445C47.6184 82.878 47.7496 83.5024 47.7496 84.2177C47.7496 84.927 47.6184 85.5469 47.3562 86.0774C47.0969 86.6079 46.7333 87.0207 46.2654 87.3157C45.8004 87.6108 45.258 87.7583 44.6381 87.7583ZM44.6381 86.8105C45.109 86.8105 45.4964 86.6898 45.8004 86.4484C46.1044 86.207 46.3294 85.8896 46.4755 85.4962C46.6215 85.1028 46.6945 84.6766 46.6945 84.2177C46.6945 83.7587 46.6215 83.331 46.4755 82.9346C46.3294 82.5383 46.1044 82.2179 45.8004 81.9735C45.4964 81.7291 45.109 81.6069 44.6381 81.6069C44.1672 81.6069 43.7798 81.7291 43.4758 81.9735C43.1718 82.2179 42.9468 82.5383 42.8007 82.9346C42.6547 83.331 42.5817 83.7587 42.5817 84.2177C42.5817 84.6766 42.6547 85.1028 42.8007 85.4962C42.9468 85.8896 43.1718 86.207 43.4758 86.4484C43.7798 86.6898 44.1672 86.8105 44.6381 86.8105ZM44.1553 79.8187L45.2461 77.7444H46.4799L45.0852 79.8187H44.1553ZM51.9529 87.7583C51.3807 87.7583 50.8755 87.6137 50.4374 87.3247C49.9993 87.0326 49.6566 86.6213 49.4092 86.0908C49.1619 85.5573 49.0382 84.927 49.0382 84.1998C49.0382 83.4786 49.1619 82.8527 49.4092 82.3222C49.6566 81.7917 50.0008 81.3819 50.4419 81.0928C50.883 80.8037 51.3926 80.6592 51.9708 80.6592C52.4178 80.6592 52.771 80.7337 53.0303 80.8827C53.2926 81.0287 53.4923 81.1956 53.6293 81.3834C53.7694 81.5682 53.8782 81.7202 53.9557 81.8394H54.0451V78.4597H55.1001V87.6152H54.0809V86.5602H53.9557C53.8782 86.6854 53.7679 86.8433 53.6249 87.0341C53.4818 87.2218 53.2777 87.3902 53.0124 87.5392C52.7472 87.6853 52.394 87.7583 51.9529 87.7583ZM52.096 86.8105C52.5192 86.8105 52.8768 86.7003 53.1689 86.4797C53.461 86.2562 53.683 85.9477 53.835 85.5543C53.987 85.158 54.063 84.7005 54.063 84.1819C54.063 83.6693 53.9885 83.2208 53.8395 82.8363C53.6904 82.4489 53.4699 82.1478 53.1778 81.9333C52.8858 81.7157 52.5251 81.6069 52.096 81.6069C51.6489 81.6069 51.2764 81.7217 50.9784 81.9511C50.6833 82.1776 50.4613 82.4861 50.3123 82.8765C50.1662 83.264 50.0932 83.6991 50.0932 84.1819C50.0932 84.6707 50.1677 85.1147 50.3167 85.5141C50.4687 85.9105 50.6922 86.2264 50.9873 86.4619C51.2853 86.6943 51.6549 86.8105 52.096 86.8105ZM57.1789 87.6152V80.7486H58.2339V87.6152H57.1789ZM57.7154 79.6041C57.5097 79.6041 57.3324 79.5341 57.1834 79.394C57.0373 79.254 56.9643 79.0856 56.9643 78.8889C56.9643 78.6922 57.0373 78.5238 57.1834 78.3837C57.3324 78.2436 57.5097 78.1736 57.7154 78.1736C57.921 78.1736 58.0968 78.2436 58.2429 78.3837C58.3919 78.5238 58.4664 78.6922 58.4664 78.8889C58.4664 79.0856 58.3919 79.254 58.2429 79.394C58.0968 79.5341 57.921 79.6041 57.7154 79.6041ZM62.938 90.3333C62.4284 90.3333 61.9903 90.2677 61.6237 90.1366C61.2571 90.0084 60.9516 89.8386 60.7072 89.6269C60.4658 89.4183 60.2736 89.1948 60.1305 88.9564L60.971 88.3663C61.0664 88.4914 61.1871 88.6345 61.3331 88.7954C61.4791 88.9594 61.6788 89.1009 61.9321 89.2201C62.1884 89.3423 62.5237 89.4034 62.938 89.4034C63.4923 89.4034 63.9498 89.2693 64.3104 89.0011C64.671 88.7329 64.8514 88.3126 64.8514 87.7404V86.3456H64.7619C64.6845 86.4708 64.5742 86.6258 64.4311 86.8105C64.2911 86.9923 64.0884 87.1548 63.8231 87.2978C63.5609 87.4379 63.2062 87.5079 62.7592 87.5079C62.2048 87.5079 61.7071 87.3768 61.266 87.1145C60.8279 86.8523 60.4807 86.4708 60.2244 85.9701C59.9711 85.4694 59.8444 84.8614 59.8444 84.1461C59.8444 83.4428 59.9681 82.8303 60.2155 82.3088C60.4628 81.7842 60.8071 81.3789 61.2482 81.0928C61.6892 80.8037 62.1989 80.6592 62.7771 80.6592C63.2241 80.6592 63.5788 80.7337 63.841 80.8827C64.1063 81.0287 64.3089 81.1956 64.449 81.3834C64.5921 81.5682 64.7023 81.7202 64.7798 81.8394H64.8871V80.7486H65.9064V87.8119C65.9064 88.402 65.7723 88.8819 65.504 89.2514C65.2388 89.624 64.8812 89.8967 64.4311 90.0695C63.9841 90.2454 63.4864 90.3333 62.938 90.3333ZM62.9022 86.5602C63.3254 86.5602 63.6831 86.4633 63.9751 86.2696C64.2672 86.0759 64.4892 85.7972 64.6412 85.4336C64.7932 85.07 64.8692 84.6349 64.8692 84.1283C64.8692 83.6335 64.7947 83.1969 64.6457 82.8184C64.4967 82.4399 64.2762 82.1434 63.9841 81.9288C63.692 81.7142 63.3314 81.6069 62.9022 81.6069C62.4552 81.6069 62.0826 81.7202 61.7846 81.9467C61.4896 82.1732 61.2675 82.4772 61.1185 82.8586C60.9725 83.2401 60.8995 83.6633 60.8995 84.1283C60.8995 84.6051 60.974 85.0268 61.123 85.3934C61.275 85.757 61.4985 86.0431 61.7935 86.2517C62.0916 86.4574 62.4611 86.5602 62.9022 86.5602ZM70.6272 87.7583C70.0073 87.7583 69.4634 87.6108 68.9955 87.3157C68.5306 87.0207 68.167 86.6079 67.9047 86.0774C67.6454 85.5469 67.5158 84.927 67.5158 84.2177C67.5158 83.5024 67.6454 82.878 67.9047 82.3445C68.167 81.8111 68.5306 81.3968 68.9955 81.1018C69.4634 80.8067 70.0073 80.6592 70.6272 80.6592C71.2471 80.6592 71.7895 80.8067 72.2545 81.1018C72.7224 81.3968 73.086 81.8111 73.3453 82.3445C73.6075 82.878 73.7387 83.5024 73.7387 84.2177C73.7387 84.927 73.6075 85.5469 73.3453 86.0774C73.086 86.6079 72.7224 87.0207 72.2545 87.3157C71.7895 87.6108 71.2471 87.7583 70.6272 87.7583ZM70.6272 86.8105C71.0981 86.8105 71.4855 86.6898 71.7895 86.4484C72.0935 86.207 72.3185 85.8896 72.4646 85.4962C72.6106 85.1028 72.6836 84.6766 72.6836 84.2177C72.6836 83.7587 72.6106 83.331 72.4646 82.9346C72.3185 82.5383 72.0935 82.2179 71.7895 81.9735C71.4855 81.7291 71.0981 81.6069 70.6272 81.6069C70.1563 81.6069 69.7689 81.7291 69.4649 81.9735C69.1609 82.2179 68.9359 82.5383 68.7898 82.9346C68.6438 83.331 68.5708 83.7587 68.5708 84.2177C68.5708 84.6766 68.6438 85.1028 68.7898 85.4962C68.9359 85.8896 69.1609 86.207 69.4649 86.4484C69.7689 86.6898 70.1563 86.8105 70.6272 86.8105ZM81.4826 87.7583C80.9104 87.7583 80.4053 87.6137 79.9671 87.3247C79.529 87.0326 79.1863 86.6213 78.9389 86.0908C78.6916 85.5573 78.5679 84.927 78.5679 84.1998C78.5679 83.4786 78.6916 82.8527 78.9389 82.3222C79.1863 81.7917 79.5305 81.3819 79.9716 81.0928C80.4127 80.8037 80.9223 80.6592 81.5005 80.6592C81.9476 80.6592 82.3007 80.7337 82.56 80.8827C82.8223 81.0287 83.022 81.1956 83.1591 81.3834C83.2991 81.5682 83.4079 81.7202 83.4854 81.8394H83.5748V78.4597H84.6298V87.6152H83.6106V86.5602H83.4854C83.4079 86.6854 83.2976 86.8433 83.1546 87.0341C83.0115 87.2218 82.8074 87.3902 82.5421 87.5392C82.2769 87.6853 81.9237 87.7583 81.4826 87.7583ZM81.6257 86.8105C82.0489 86.8105 82.4065 86.7003 82.6986 86.4797C82.9907 86.2562 83.2127 85.9477 83.3647 85.5543C83.5167 85.158 83.5927 84.7005 83.5927 84.1819C83.5927 83.6693 83.5182 83.2208 83.3692 82.8363C83.2202 82.4489 82.9996 82.1478 82.7075 81.9333C82.4155 81.7157 82.0549 81.6069 81.6257 81.6069C81.1786 81.6069 80.8061 81.7217 80.5081 81.9511C80.213 82.1776 79.991 82.4861 79.842 82.8765C79.6959 83.264 79.6229 83.6991 79.6229 84.1819C79.6229 84.6707 79.6974 85.1147 79.8464 85.5141C79.9984 85.9105 80.222 86.2264 80.517 86.4619C80.815 86.6943 81.1846 86.8105 81.6257 86.8105ZM89.5876 87.7583C88.926 87.7583 88.3552 87.6123 87.8754 87.3202C87.3986 87.0251 87.0305 86.6138 86.7712 86.0863C86.5149 85.5558 86.3867 84.9389 86.3867 84.2356C86.3867 83.5322 86.5149 82.9123 86.7712 82.3758C87.0305 81.8364 87.3911 81.4162 87.8531 81.1152C88.318 80.8112 88.8604 80.6592 89.4803 80.6592C89.838 80.6592 90.1911 80.7188 90.5398 80.838C90.8885 80.9572 91.2059 81.1509 91.492 81.4192C91.7781 81.6844 92.0061 82.0361 92.176 82.4742C92.3459 82.9123 92.4308 83.4517 92.4308 84.0925V84.5395H87.1378V83.6276H91.3579C91.3579 83.2401 91.2804 82.8944 91.1255 82.5904C90.9735 82.2864 90.7559 82.0465 90.4728 81.8707C90.1926 81.6948 89.8618 81.6069 89.4803 81.6069C89.0601 81.6069 88.6965 81.7112 88.3895 81.9198C88.0855 82.1255 87.8516 82.3937 87.6877 82.7245C87.5237 83.0554 87.4418 83.41 87.4418 83.7885V84.3965C87.4418 84.9151 87.5312 85.3547 87.71 85.7153C87.8918 86.0729 88.1436 86.3456 88.4655 86.5334C88.7874 86.7182 89.1614 86.8105 89.5876 86.8105C89.8648 86.8105 90.1151 86.7718 90.3386 86.6943C90.5652 86.6138 90.7604 86.4946 90.9243 86.3367C91.0882 86.1757 91.2149 85.9761 91.3043 85.7376L92.3235 86.0237C92.2162 86.3695 92.0359 86.6735 91.7826 86.9357C91.5293 87.195 91.2164 87.3977 90.8438 87.5437C90.4713 87.6868 90.0525 87.7583 89.5876 87.7583ZM30.5651 93.4597L33.2831 101.167H33.3904L36.1084 93.4597H37.2708L33.909 102.615H32.7645L29.4027 93.4597H30.5651ZM40.7935 102.758C40.1319 102.758 39.5611 102.612 39.0813 102.32C38.6045 102.025 38.2364 101.614 37.9771 101.086C37.7208 100.556 37.5926 99.9389 37.5926 99.2356C37.5926 98.5322 37.7208 97.9123 37.9771 97.3758C38.2364 96.8364 38.597 96.4162 39.059 96.1152C39.5239 95.8112 40.0663 95.6592 40.6862 95.6592C41.0438 95.6592 41.397 95.7188 41.7457 95.838C42.0944 95.9572 42.4118 96.1509 42.6979 96.4192C42.984 96.6844 43.212 97.0361 43.3819 97.4742C43.5518 97.9123 43.6367 98.4517 43.6367 99.0925V99.5395H38.3437V98.6276H42.5638C42.5638 98.2401 42.4863 97.8944 42.3313 97.5904C42.1793 97.2864 41.9618 97.0465 41.6786 96.8707C41.3985 96.6948 41.0677 96.6069 40.6862 96.6069C40.266 96.6069 39.9024 96.7112 39.5954 96.9198C39.2914 97.1255 39.0575 97.3937 38.8935 97.7245C38.7296 98.0554 38.6477 98.41 38.6477 98.7885V99.3965C38.6477 99.9151 38.7371 100.355 38.9159 100.715C39.0977 101.073 39.3495 101.346 39.6714 101.533C39.9933 101.718 40.3673 101.811 40.7935 101.811C41.0707 101.811 41.321 101.772 41.5445 101.694C41.771 101.614 41.9662 101.495 42.1302 101.337C42.2941 101.176 42.4207 100.976 42.5102 100.738L43.5294 101.024C43.4221 101.369 43.2418 101.673 42.9885 101.936C42.7352 102.195 42.4222 102.398 42.0497 102.544C41.6772 102.687 41.2584 102.758 40.7935 102.758ZM50.1055 97.2864L49.1578 97.5547C49.0981 97.3967 49.0102 97.2432 48.894 97.0942C48.7807 96.9422 48.6258 96.817 48.4291 96.7187C48.2324 96.6203 47.9805 96.5712 47.6736 96.5712C47.2533 96.5712 46.9031 96.668 46.623 96.8617C46.3458 97.0525 46.2072 97.2954 46.2072 97.5904C46.2072 97.8527 46.3026 98.0598 46.4934 98.2118C46.6841 98.3638 46.9821 98.4905 47.3874 98.5918L48.4067 98.8422C49.0207 98.9912 49.4781 99.2192 49.7791 99.5261C50.0802 99.8301 50.2307 100.222 50.2307 100.702C50.2307 101.095 50.1174 101.447 49.8909 101.757C49.6674 102.067 49.3545 102.311 48.9521 102.49C48.5498 102.669 48.0819 102.758 47.5484 102.758C46.848 102.758 46.2683 102.606 45.8094 102.302C45.3504 101.998 45.0598 101.554 44.9376 100.97L45.939 100.72C46.0344 101.089 46.2147 101.366 46.4799 101.551C46.7482 101.736 47.0984 101.828 47.5305 101.828C48.0223 101.828 48.4127 101.724 48.7018 101.515C48.9938 101.304 49.1399 101.051 49.1399 100.756C49.1399 100.517 49.0564 100.317 48.8895 100.156C48.7226 99.9926 48.4663 99.8704 48.1206 99.7899L46.9762 99.5217C46.3473 99.3727 45.8854 99.1417 45.5903 98.8287C45.2982 98.5128 45.1522 98.1179 45.1522 97.6441C45.1522 97.2566 45.261 96.9139 45.4786 96.6159C45.6991 96.3178 45.9986 96.0839 46.3771 95.914C46.7586 95.7441 47.1907 95.6592 47.6736 95.6592C48.3531 95.6592 48.8865 95.8082 49.274 96.1062C49.6644 96.4043 49.9416 96.7977 50.1055 97.2864ZM54.8051 95.7486V96.6427H51.2466V95.7486H54.8051ZM52.2837 94.1035H53.3388V100.648C53.3388 100.946 53.382 101.17 53.4684 101.319C53.5578 101.465 53.6711 101.563 53.8082 101.614C53.9482 101.662 54.0958 101.685 54.2507 101.685C54.367 101.685 54.4623 101.679 54.5369 101.667C54.6114 101.653 54.671 101.641 54.7157 101.632L54.9303 102.579C54.8587 102.606 54.7589 102.633 54.6307 102.66C54.5026 102.69 54.3402 102.705 54.1434 102.705C53.8454 102.705 53.5533 102.641 53.2672 102.512C52.9841 102.384 52.7487 102.189 52.5609 101.927C52.3761 101.665 52.2837 101.334 52.2837 100.934V94.1035ZM56.3921 102.615V95.7486H57.4471V102.615H56.3921ZM56.9286 94.6041C56.7229 94.6041 56.5456 94.5341 56.3966 94.394C56.2505 94.254 56.1775 94.0856 56.1775 93.8889C56.1775 93.6922 56.2505 93.5238 56.3966 93.3837C56.5456 93.2436 56.7229 93.1736 56.9286 93.1736C57.1342 93.1736 57.31 93.2436 57.4561 93.3837C57.6051 93.5238 57.6796 93.6922 57.6796 93.8889C57.6796 94.0856 57.6051 94.254 57.4561 94.394C57.31 94.5341 57.1342 94.6041 56.9286 94.6041ZM59.3795 102.615V95.7486H60.3988V96.8215H60.4882C60.6312 96.4549 60.8622 96.1703 61.1811 95.9676C61.5 95.762 61.883 95.6592 62.33 95.6592C62.783 95.6592 63.16 95.762 63.461 95.9676C63.765 96.1703 64.002 96.4549 64.1718 96.8215H64.2434C64.4192 96.4668 64.683 96.1852 65.0346 95.9766C65.3863 95.765 65.808 95.6592 66.2998 95.6592C66.9137 95.6592 67.4159 95.8514 67.8063 96.2359C68.1968 96.6173 68.392 97.2119 68.392 98.0196V102.615H67.3369V98.0196C67.3369 97.5129 67.1984 97.1508 66.9212 96.9333C66.644 96.7157 66.3177 96.6069 65.9421 96.6069C65.4593 96.6069 65.0853 96.753 64.8201 97.045C64.5548 97.3341 64.4222 97.7007 64.4222 98.1448V102.615H63.3493V97.9123C63.3493 97.5219 63.2226 97.2075 62.9693 96.969C62.716 96.7276 62.3896 96.6069 61.9902 96.6069C61.7161 96.6069 61.4598 96.6799 61.2213 96.826C60.9859 96.972 60.7951 97.1747 60.6491 97.434C60.5061 97.6903 60.4345 97.9868 60.4345 98.3236V102.615H59.3795ZM73.2 102.758C72.5383 102.758 71.9676 102.612 71.4878 102.32C71.0109 102.025 70.6429 101.614 70.3836 101.086C70.1273 100.556 69.9991 99.9389 69.9991 99.2356C69.9991 98.5322 70.1273 97.9123 70.3836 97.3758C70.6429 96.8364 71.0035 96.4162 71.4654 96.1152C71.9303 95.8112 72.4728 95.6592 73.0927 95.6592C73.4503 95.6592 73.8035 95.7188 74.1522 95.838C74.5009 95.9572 74.8183 96.1509 75.1044 96.4192C75.3905 96.6844 75.6185 97.0361 75.7884 97.4742C75.9582 97.9123 76.0432 98.4517 76.0432 99.0925V99.5395H70.7501V98.6276H74.9703C74.9703 98.2401 74.8928 97.8944 74.7378 97.5904C74.5858 97.2864 74.3682 97.0465 74.0851 96.8707C73.805 96.6948 73.4742 96.6069 73.0927 96.6069C72.6724 96.6069 72.3088 96.7112 72.0019 96.9198C71.6979 97.1255 71.4639 97.3937 71.3 97.7245C71.1361 98.0554 71.0541 98.41 71.0541 98.7885V99.3965C71.0541 99.9151 71.1435 100.355 71.3224 100.715C71.5042 101.073 71.756 101.346 72.0779 101.533C72.3997 101.718 72.7738 101.811 73.2 101.811C73.4771 101.811 73.7275 101.772 73.951 101.694C74.1775 101.614 74.3727 101.495 74.5366 101.337C74.7006 101.176 74.8272 100.976 74.9166 100.738L75.9359 101.024C75.8286 101.369 75.6483 101.673 75.395 101.936C75.1416 102.195 74.8287 102.398 74.4562 102.544C74.0836 102.687 73.6649 102.758 73.2 102.758ZM78.7031 98.4845V102.615H77.6481V95.7486H78.6674V96.8215H78.7568C78.9177 96.4728 79.1621 96.1927 79.4899 95.9811C79.8178 95.7665 80.241 95.6592 80.7595 95.6592C81.2245 95.6592 81.6313 95.7545 81.98 95.9453C82.3287 96.133 82.5999 96.4192 82.7936 96.8036C82.9873 97.1851 83.0842 97.6679 83.0842 98.2521V102.615H82.0292V98.3236C82.0292 97.7841 81.8891 97.3639 81.6089 97.0629C81.3288 96.7589 80.9443 96.6069 80.4555 96.6069C80.1188 96.6069 79.8178 96.6799 79.5525 96.826C79.2902 96.972 79.0831 97.1851 78.9311 97.4652C78.7791 97.7454 78.7031 98.0852 78.7031 98.4845ZM87.9984 95.7486V96.6427H84.4399V95.7486H87.9984ZM85.477 94.1035H86.532V100.648C86.532 100.946 86.5752 101.17 86.6617 101.319C86.7511 101.465 86.8643 101.563 87.0014 101.614C87.1415 101.662 87.289 101.685 87.444 101.685C87.5602 101.685 87.6556 101.679 87.7301 101.667C87.8046 101.653 87.8642 101.641 87.9089 101.632L88.1235 102.579C88.052 102.606 87.9522 102.633 87.824 102.66C87.6958 102.69 87.5334 102.705 87.3367 102.705C87.0387 102.705 86.7466 102.641 86.4605 102.512C86.1774 102.384 85.9419 102.189 85.7542 101.927C85.5694 101.665 85.477 101.334 85.477 100.934V94.1035ZM91.606 102.776C91.1709 102.776 90.776 102.694 90.4213 102.53C90.0667 102.363 89.7851 102.123 89.5764 101.811C89.3678 101.495 89.2635 101.113 89.2635 100.666C89.2635 100.273 89.341 99.9538 89.496 99.7094C89.6509 99.4621 89.8581 99.2683 90.1174 99.1283C90.3766 98.9882 90.6628 98.8839 90.9757 98.8153C91.2916 98.7438 91.609 98.6872 91.9279 98.6455C92.3451 98.5918 92.6834 98.5516 92.9427 98.5248C93.205 98.4949 93.3957 98.4458 93.5149 98.3772C93.6371 98.3087 93.6982 98.1895 93.6982 98.0196V97.9838C93.6982 97.5427 93.5775 97.2 93.3361 96.9556C93.0977 96.7112 92.7356 96.589 92.2498 96.589C91.7461 96.589 91.3512 96.6993 91.0651 96.9198C90.779 97.1404 90.5778 97.3758 90.4616 97.6262L89.4602 97.2685C89.639 96.8513 89.8774 96.5264 90.1755 96.294C90.4765 96.0585 90.8043 95.8946 91.159 95.8022C91.5166 95.7069 91.8683 95.6592 92.214 95.6592C92.4346 95.6592 92.6879 95.686 92.974 95.7396C93.2631 95.7903 93.5417 95.8961 93.81 96.057C94.0812 96.218 94.3062 96.4609 94.485 96.7857C94.6638 97.1106 94.7532 97.5457 94.7532 98.0911V102.615H93.6982V101.685H93.6446C93.573 101.834 93.4538 101.994 93.2869 102.164C93.12 102.334 92.898 102.478 92.6208 102.597C92.3437 102.717 92.0054 102.776 91.606 102.776ZM91.767 101.828C92.1842 101.828 92.5359 101.746 92.822 101.583C93.1111 101.419 93.3286 101.207 93.4747 100.948C93.6237 100.688 93.6982 100.416 93.6982 100.13V99.164C93.6535 99.2177 93.5552 99.2668 93.4032 99.3116C93.2541 99.3533 93.0813 99.3905 92.8846 99.4233C92.6909 99.4531 92.5016 99.4799 92.3168 99.5038C92.135 99.5246 91.9875 99.5425 91.8743 99.5574C91.6001 99.5932 91.3438 99.6513 91.1053 99.7318C90.8699 99.8093 90.6791 99.927 90.5331 100.085C90.3901 100.24 90.3185 100.452 90.3185 100.72C90.3185 101.086 90.4541 101.364 90.7253 101.551C90.9995 101.736 91.3467 101.828 91.767 101.828Z" fill="white"/>
<path fill-rule="evenodd" clip-rule="evenodd" d="M59.2235 36.2045L59.2767 36.3292C59.3539 36.5506 59.5665 36.9443 59.9313 37.3398C60.5335 37.9927 61.3277 38.3766 62.3971 38.3766C63.4664 38.3766 64.2606 37.9927 64.8628 37.3398C65.182 36.9937 65.3847 36.6491 65.4821 36.42L65.5174 36.3292C65.6989 35.8091 66.2707 35.538 66.7882 35.7266L68.6818 36.4032L69.3359 36.6253L69.4458 36.6604C70.9783 37.138 72.089 37.6949 73.2059 38.8397C74.7488 40.4213 75.6464 42.6952 75.7248 45.762L75.7304 46.2056V47.9026L75.7238 48.1079C75.6231 49.6623 74.3828 50.906 72.8305 51.007L72.6263 51.0136L70.7917 51.0133L70.7921 59.2232C70.7921 60.8716 69.512 62.2213 67.8922 62.3267L67.6881 62.3333H57.106C55.4596 62.3333 54.1136 61.0495 54.0086 59.4276L54.002 59.2232L54.0011 51.0133L52.1678 51.0136C50.5213 51.0136 49.1754 49.7298 49.0703 48.1079L49.0637 47.9035V46.2056C49.0637 42.9133 49.9719 40.4966 51.5882 38.8397C52.6192 37.7829 53.6449 37.2272 55.0014 36.7724L55.7442 36.5297L56.6134 36.2268L58.0062 35.7265C58.4805 35.5538 59.0004 35.7672 59.2235 36.2045ZM66.9341 37.878L66.8107 38.064C66.7171 38.198 66.6127 38.3347 66.497 38.4723L66.3149 38.679C65.3551 39.7196 64.0468 40.3519 62.3971 40.3519C60.7473 40.3519 59.439 39.7196 58.4792 38.679C58.2884 38.4721 58.1239 38.265 57.9834 38.064L57.86 37.8792L56.3665 38.4045L55.9361 38.5462C52.9092 39.4896 51.1365 41.2483 51.0429 45.8182L51.039 46.2056V47.9051L51.0466 48.036C51.1069 48.5574 51.5184 48.9703 52.0362 49.0307L52.1678 49.0383L54.0011 49.0373L54.002 46.4885C54.002 45.9431 54.4442 45.5009 54.9896 45.5009C55.4932 45.5009 55.9087 45.8777 55.9696 46.3647L55.9773 46.4885V59.2232C55.9773 59.8059 56.4135 60.2849 56.9745 60.3504L57.106 60.358H67.6881C68.2664 60.358 68.7439 59.9206 68.8092 59.3557L68.8168 59.2232V46.4885C68.8168 45.9431 69.259 45.5009 69.8045 45.5009C70.308 45.5009 70.7235 45.8777 70.7844 46.3647L70.7921 46.4885L70.7917 49.0373L72.6263 49.0383C73.2047 49.0383 73.6822 48.6009 73.7475 48.036L73.7551 47.9035V46.2056C73.7551 41.478 72.0643 39.617 69.1075 38.6268L68.5919 38.46L67.5195 38.0884L66.9341 37.878Z" fill="white"/>
</g>
<defs>
<filter id="filter0_bii_165_494" x="-64.7713" y="-64.7691" width="254.337" height="245.395" filterUnits="userSpaceOnUse" color-interpolation-filters="sRGB">
<feFlood flood-opacity="0" result="BackgroundImageFix"/>
<feGaussianBlur in="BackgroundImageFix" stdDeviation="32.5124"/>
<feComposite in2="SourceAlpha" operator="in" result="effect1_backgroundBlur_165_494"/>
<feBlend mode="normal" in="SourceGraphic" in2="effect1_backgroundBlur_165_494" result="shape"/>
<feColorMatrix in="SourceAlpha" type="matrix" values="0 0 0 0 0 0 0 0 0 0 0 0 0 0 0 0 0 0 127 0" result="hardAlpha"/>
<feOffset dy="2.02763"/>
<feGaussianBlur stdDeviation="1.01381"/>
<feComposite in2="hardAlpha" operator="arithmetic" k2="-1" k3="1"/>
<feColorMatrix type="matrix" values="0 0 0 0 1 0 0 0 0 1 0 0 0 0 1 0 0 0 0.15 0"/>
<feBlend mode="normal" in2="shape" result="effect2_innerShadow_165_494"/>
<feColorMatrix in="SourceAlpha" type="matrix" values="0 0 0 0 0 0 0 0 0 0 0 0 0 0 0 0 0 0 127 0" result="hardAlpha"/>
<feOffset/>
<feGaussianBlur stdDeviation="15.2072"/>
<feComposite in2="hardAlpha" operator="arithmetic" k2="-1" k3="1"/>
<feColorMatrix type="matrix" values="0 0 0 0 1 0 0 0 0 1 0 0 0 0 1 0 0 0 0.05 0"/>
<feBlend mode="normal" in2="effect2_innerShadow_165_494" result="effect3_innerShadow_165_494"/>
</filter>
</defs>
</svg>
