<svg width="82" height="82" viewBox="0 0 82 82" fill="none" xmlns="http://www.w3.org/2000/svg">
<g clip-path="url(#clip0_23_903)">
<path d="M25.3376 77.9786C25.3376 75.125 25.3734 72.5193 25.2991 69.9161C25.2889 69.5164 24.8659 68.9978 24.4891 68.7574C22.3258 67.3812 21.462 65.4712 21.6747 62.9591C21.8003 61.4943 21.6747 60.0093 21.708 58.5344C21.7516 56.6193 22.6821 55.5188 24.5071 54.9319C24.8531 54.8206 25.294 54.3045 25.3017 53.9681C25.3606 50.5958 25.3606 47.2235 25.3042 43.8538C25.2965 43.449 24.9505 42.9001 24.5942 42.6724C22.3027 41.2127 21.4004 39.1837 21.6747 36.53C21.7952 35.3612 21.6927 34.1722 21.6952 32.9907C21.7029 30.2433 22.5078 29.2339 25.3324 28.5281C25.3324 25.4012 25.3401 22.244 25.3171 19.0893C25.3171 18.8313 25.1428 18.5378 24.971 18.3228C23.9688 17.0731 22.9409 15.841 21.8593 14.528C18.5066 16.309 15.1411 18.0951 11.6987 19.9242C11.8422 20.1519 11.9165 20.3416 12.0498 20.4757C17.0276 25.5024 18.7065 31.5184 17.8555 38.4223C17.2173 43.6008 16.8635 48.8123 16.3765 54.0085C16.2586 55.2659 16.1177 56.5207 15.9972 57.778C15.9203 58.5901 15.5486 59.2352 14.6694 59.1491C13.7364 59.0606 13.4647 58.3421 13.5596 57.4719C13.7339 55.8452 13.8953 54.216 14.0773 52.4274C11.7832 52.015 9.54043 51.6077 7.29761 51.208C5.83145 50.9449 4.36016 50.7096 2.89912 50.4288C1.18689 50.0999 -0.1101 48.6301 0.00268155 46.9301C0.0847046 45.6854 0.297452 44.4028 0.735763 43.2441C1.0049 42.5282 1.7021 41.792 2.40186 41.4581C3.24772 41.0533 3.51429 40.5802 3.66552 39.715C4.59854 34.3745 5.61357 29.0467 6.59529 23.7164C7.10024 20.974 8.59972 18.9148 11.0502 17.5714C14.1414 15.8764 17.2814 14.27 20.3675 12.5649C20.7468 12.3549 21.0365 11.811 21.1646 11.3632C21.8054 9.1547 22.3437 6.9158 23.005 4.71485C23.1127 4.35308 23.6228 4.03179 24.0226 3.84712C30.4537 0.879629 37.1873 -0.365046 44.2798 0.229464C48.8705 0.613997 53.2356 1.74736 57.4393 3.58401C58.4031 4.00397 59.0798 4.52005 59.313 5.59776C59.7565 7.6368 60.2537 9.66572 60.8023 11.6795C60.9022 12.0438 61.2995 12.4131 61.6558 12.6104C64.114 13.9563 66.5336 15.4008 69.0917 16.5367C73.198 18.3557 75.2255 21.4193 75.8381 25.7554C76.5328 30.6608 77.5324 35.5256 78.4321 40.4031C78.4859 40.694 78.7935 41.0609 79.0755 41.1722C80.516 41.7465 81.3363 42.7559 81.5618 44.2687C81.672 45.015 81.8848 45.7486 81.9719 46.4975C82.1949 48.41 80.9441 50.0848 78.9986 50.4389C75.651 51.0486 72.2932 51.6178 68.9405 52.2124C68.615 52.2705 68.3023 52.397 67.9127 52.5109C68.2049 55.6479 68.4996 58.7418 68.7816 61.8333C69.1968 66.3617 69.6505 70.885 69.9914 75.4185C70.1298 77.2501 68.8969 78.7452 67.0591 78.9906C62.7939 79.5598 58.5236 80.1088 54.2404 80.4933C46.7456 81.1662 39.2251 81.2927 31.7225 80.7539C26.1168 80.3516 20.529 79.6509 14.9437 78.9931C13.052 78.7705 11.8294 77.2197 11.9729 75.3274C12.2703 71.3809 12.6368 67.4394 13.0828 63.508C13.1315 63.0704 13.8236 62.4354 14.2849 62.3721C15.0872 62.2608 15.4717 62.9262 15.4051 63.7104C15.1898 66.2681 14.9514 68.8257 14.7156 71.3834C14.5977 72.6407 14.4592 73.8955 14.3388 75.1528C14.2568 76.0079 14.6566 76.5594 15.505 76.6783C18.7065 77.1236 21.9131 77.5334 25.3401 77.9837L25.3376 77.9786ZM49.4267 78.4922C49.4267 75.8966 49.3447 73.4604 49.46 71.0317C49.519 69.7871 49.1217 68.9826 48.1015 68.3122C46.4867 67.2547 45.7229 65.7697 45.8254 63.804C45.9202 61.9952 45.8305 60.1813 45.851 58.3674C45.8715 56.7407 46.8507 55.362 48.4322 55.0306C49.3575 54.8383 49.4446 54.3981 49.437 53.6417C49.4062 50.6489 49.3831 47.6561 49.4472 44.6659C49.4703 43.6034 49.2396 42.8571 48.2758 42.2524C46.4764 41.1267 45.6665 39.4848 45.8203 37.3243C45.9433 35.604 45.851 33.8711 45.8459 32.1432C45.8408 30.7291 46.579 29.75 47.7555 29.0796C48.2502 28.7988 48.8372 28.6748 49.3549 28.4927V24.2299C45.3486 23.8277 44.6591 19.9621 42.2164 17.6018C42.2164 18.467 42.2164 19.1298 42.2164 19.7901C42.2164 21.8544 42.2164 23.9213 42.2164 25.9856C42.2164 26.8458 41.8985 27.5642 40.9501 27.5491C40.0838 27.5339 39.7582 26.8508 39.7582 26.0388C39.7582 25.4063 39.7582 24.7738 39.7582 24.1414C39.7582 22.0214 39.7582 19.9039 39.7582 17.579C37.3104 20.0279 36.5927 23.8555 32.594 24.2451V28.4876C35.5084 29.4136 36.1262 30.2509 36.1287 33.2285C36.1287 34.367 36.0262 35.5155 36.1492 36.6413C36.4363 39.2596 35.4982 41.2177 33.2605 42.6547C32.8888 42.8925 32.5863 43.5275 32.5787 43.9828C32.5223 47.2691 32.5582 50.5578 32.5376 53.8441C32.5351 54.4639 32.635 54.8105 33.363 54.9901C35.2213 55.4455 36.1108 56.6674 36.1236 58.5673C36.1364 60.4647 36.0954 62.362 36.1364 64.2569C36.1646 65.6635 35.7519 66.9891 34.5805 67.6823C32.6581 68.8181 32.3223 70.4145 32.5351 72.37C32.612 73.0784 32.5479 73.8019 32.5479 74.5178C32.5479 75.8055 32.5479 77.0932 32.5479 78.5124H39.7582C39.7582 78.0292 39.7582 77.5359 39.7582 77.0426C39.7582 62.3747 39.7582 47.7093 39.7608 33.0413C39.7608 32.0496 39.5506 30.7265 41.027 30.7493C42.3855 30.7695 42.2164 32.037 42.2164 32.9958C42.2189 47.6637 42.2164 62.3291 42.2164 76.9971V78.4871H49.4267V78.4922ZM60.1076 14.5205C59.0157 15.8486 57.9622 17.1135 56.9369 18.4012C56.7703 18.6112 56.6499 18.9249 56.6499 19.1905C56.6294 22.3047 56.637 25.419 56.637 28.5079C59.5258 29.2946 60.2666 30.2509 60.2743 33.097C60.2768 34.1924 60.1769 35.3005 60.2948 36.3832C60.5921 39.1256 59.6719 41.2329 57.2984 42.7483C56.9549 42.9658 56.6704 43.5452 56.6652 43.9626C56.614 47.2918 56.614 50.6236 56.6729 53.9529C56.6781 54.2944 57.1087 54.8206 57.4521 54.9319C59.3028 55.5315 60.2256 56.6092 60.2666 58.5217C60.305 60.3761 60.2537 62.233 60.2845 64.0874C60.3127 65.7242 59.7616 67.1333 58.3698 68.001C56.8729 68.9345 56.4884 70.1463 56.6063 71.8084C56.7473 73.8019 56.6396 75.8131 56.6396 77.9862C60.0589 77.5334 63.2655 77.121 66.4696 76.6758C67.318 76.5569 67.7255 76.013 67.6435 75.1554C67.523 73.898 67.3872 72.6432 67.2667 71.3859C66.7079 65.6027 66.1466 59.8195 65.6006 54.0364C65.1085 48.8401 64.7522 43.6261 64.1217 38.445C63.4321 32.7706 64.3754 27.5516 67.8383 22.8917C68.5817 21.8898 69.4455 20.974 70.3144 19.9469C66.8515 18.1052 63.4834 16.3141 60.1153 14.523L60.1076 14.5205ZM55.0402 5.17275C45.5562 1.54244 36.4004 1.5475 26.9473 5.17275C31.6456 7.49766 36.0749 9.70873 40.5349 11.8616C40.863 12.0185 41.4448 11.8616 41.8242 11.6795C44.39 10.4525 46.9301 9.17999 49.4805 7.92014C51.2466 7.04735 53.0127 6.17203 55.0427 5.17022L55.0402 5.17275ZM9.67884 21.5837C7.92816 28.2422 7.19508 34.7667 5.8135 41.2683C8.96114 41.8198 11.9396 42.3435 15.1308 42.9026C15.2897 39.4646 15.6998 36.2264 15.5255 33.0211C15.2872 28.6293 13.2776 24.9206 9.67884 21.5837ZM72.5367 21.8898C72.2958 21.8468 72.0548 21.8038 71.8139 21.7608C70.7425 23.2028 69.5659 24.5791 68.6227 26.0969C65.3341 31.3792 66.4004 37.089 67.0412 42.8899C70.0965 42.3435 73.0852 41.8097 76.156 41.2582C74.9333 34.7085 73.7337 28.3004 72.5367 21.8924V21.8898ZM39.2046 13.9082C34.3575 11.5176 29.6361 9.18758 24.8018 6.80448C24.4071 8.05422 24.0483 9.12181 23.7355 10.202C23.3613 11.4998 23.5946 12.7546 24.4174 13.7919C26.3321 16.2129 28.2929 18.6011 30.3102 20.9386C31.3868 22.1858 33.2656 22.2061 34.2345 20.931C35.9416 18.6846 37.5026 16.3318 39.2046 13.9082ZM42.7854 13.9057C44.2746 16.0459 45.6793 18.0875 47.107 20.1164C48.65 22.3123 50.4546 22.4009 52.1745 20.3593C53.6714 18.5808 55.1504 16.7872 56.6191 14.9859C58.8389 12.2639 58.9439 10.0148 56.9908 6.89556C52.2975 9.21035 47.5991 11.5302 42.7854 13.9057ZM14.2696 50.0165C14.4054 48.6149 14.4849 47.4057 14.6541 46.2091C14.7617 45.4476 14.5028 45.1896 13.7415 45.0732C11.186 44.6785 8.62279 44.2915 6.09802 43.7374C2.50951 42.9507 3.02728 43.7501 2.48644 46.2673C2.23012 47.4613 2.6915 48.0103 3.84751 48.1697C4.51908 48.2608 5.18039 48.4126 5.84939 48.5289C8.59972 49.0172 11.3501 49.5004 14.2696 50.0165ZM67.6973 50.0215C71.4294 49.3612 75.0205 48.7566 78.5962 48.071C79.4138 47.9142 79.7906 47.2514 79.4933 46.4216C79.1062 45.3363 79.6932 43.7349 77.899 43.3731C77.7477 43.3428 77.5709 43.4389 77.4043 43.4693C74.3566 44.0107 71.3115 44.5773 68.2561 45.0732C67.5179 45.1921 67.2026 45.3945 67.3154 46.1838C67.4846 47.3829 67.5615 48.5947 67.6973 50.0215ZM33.7244 35.8646H24.1559C23.9303 38.9055 25.3094 41.114 28.1212 42.2094C28.5621 42.3814 29.1619 42.4017 29.613 42.2575C32.2762 41.4049 33.9346 38.8245 33.7244 35.8646ZM48.3194 35.809C47.9041 38.5513 48.1272 39.1357 50.1162 40.6637C53.0947 42.9507 53.0203 42.8495 56.0629 40.6738C57.893 39.3634 58.116 37.7848 57.7649 35.8115H48.322L48.3194 35.809ZM33.7167 62.1268H24.1585C23.938 65.074 25.6041 67.6038 28.3058 68.4766C28.6826 68.598 29.167 68.593 29.5438 68.4716C32.2454 67.5962 33.9372 65.0411 33.7167 62.1268ZM48.2784 62.0812C47.9426 64.1127 48.2989 65.6027 50.0162 66.855C53.1229 69.1167 52.964 69.1015 56.0885 66.8474C57.8905 65.5471 58.1032 64.0216 57.7623 62.0837H48.2784V62.0812ZM27.7777 44.7418V54.7219H30.0641V44.7418H27.7777ZM51.9079 44.7443V54.7093H54.2379V44.7443H51.9079ZM33.6834 33.4107C33.8961 31.4501 33.5245 31.0251 31.6713 31.02C29.7976 31.0124 27.9213 31.0099 26.0476 31.02C24.2405 31.0326 23.8227 31.5993 24.2995 33.4107H33.6834ZM57.7623 33.4107C58.0109 31.402 57.6905 31.0276 55.7989 31.02C53.9252 31.0124 52.0489 31.0099 50.1752 31.02C48.3835 31.0326 47.94 31.617 48.3835 33.4107H57.7649H57.7623ZM33.6578 59.5134C33.8961 57.735 33.5091 57.2492 31.8866 57.2416C29.9283 57.2341 27.9674 57.2366 26.0091 57.2416C24.261 57.2467 23.874 57.7501 24.2738 59.5134H33.6578ZM57.7444 59.5134C58.0135 57.6312 57.688 57.2467 55.8835 57.2442C53.9662 57.2391 52.0489 57.2391 50.1316 57.2442C48.4245 57.2492 47.9862 57.8058 48.3578 59.5134H57.7418H57.7444ZM27.7265 78.1102H30.0693V70.9862H27.7265V78.1102ZM51.9105 70.966V78.2671C52.7256 78.2266 53.4638 78.1912 54.2148 78.1557V70.9685H51.9105V70.966ZM27.7701 21.9506V28.5812H30.1308C30.1308 27.0659 30.141 25.6087 30.118 24.1515C30.1154 23.9719 29.9898 23.7442 29.8463 23.6228C29.1875 23.0637 28.5031 22.535 27.7701 21.9506ZM54.2584 22.0543C50.9954 23.4153 51.8541 26.0919 51.913 28.5433H54.2584V22.0543Z" fill="#E2B562"/>
</g>
<defs>
<clipPath id="clip0_23_903">
<rect width="82" height="81" fill="white" transform="translate(0 0.0852051)"/>
</clipPath>
</defs>
</svg>
