<svg width="69" height="77" viewBox="0 0 69 77" fill="none" xmlns="http://www.w3.org/2000/svg">
<g clip-path="url(#clip0_23_895)">
<path d="M57.6782 67.7731C55.2654 64.0026 52.6898 60.376 50.5344 56.5134C47.4583 51.0004 44.6891 45.3151 41.79 39.7006C41.7192 39.5613 41.672 39.4102 41.6129 39.2638C41.3202 38.5461 41.3981 37.9109 42.1772 37.6017C42.8949 37.316 43.3576 37.6985 43.6668 38.3548C44.8401 40.8363 45.9851 43.3342 47.2222 45.7849C50.5722 52.417 54.2361 58.8673 58.613 64.8903C58.7264 65.0461 58.8515 65.1949 59.1017 65.5113C61.2076 64.2481 63.3063 62.9897 65.5396 61.6533C64.2648 60.2273 63.0797 58.9382 61.9347 57.616C55.4897 50.1552 49.9489 42.0545 44.9865 33.5501C44.5569 32.8135 44.1012 32.516 43.2348 32.5231C37.3706 32.5609 31.5087 32.5514 25.6445 32.5325C24.967 32.5325 24.5019 32.6506 24.1147 33.314C18.2835 43.2846 11.7418 52.7405 3.80714 61.1811C3.7009 61.2921 3.62536 61.4314 3.46246 61.6628C5.6037 62.9566 7.71426 64.2292 10.0562 65.6411C12.5374 61.6675 15.113 57.904 17.3133 53.9352C20.0896 48.9275 22.5495 43.745 25.1794 38.6547C25.4084 38.2132 25.8334 37.7976 26.2701 37.5686C26.485 37.4576 27.1413 37.7221 27.2404 37.9652C27.4104 38.3737 27.4623 38.9781 27.2805 39.3677C25.7295 42.6708 24.1808 45.9785 22.507 49.2202C19.294 55.4391 15.7339 61.4503 11.5576 67.0837C11.4207 67.2678 11.3239 67.4827 11.1351 67.8085C12.4571 68.4979 13.7319 69.1755 15.0209 69.8295C15.7339 70.1908 16.4091 70.6134 15.9841 71.5342C15.5545 72.4621 14.7589 72.2378 14.0648 71.8765C12.5326 71.0809 11.0099 70.264 9.51791 69.3975C8.30918 68.6939 8.29501 68.5877 8.34459 67.3694C6.05462 65.8867 3.79061 64.4748 1.58563 62.9732C0.28955 62.0925 0.287189 61.54 1.35899 60.4303C9.67136 51.8433 16.3855 42.0781 22.3748 31.7865C22.6345 31.3402 22.7549 30.7665 22.7903 30.24C23.1161 25.4353 22.1718 20.7841 21.0055 16.166C20.8521 15.5568 20.7695 14.9241 20.5452 14.3409C19.8346 12.4781 20.5995 11.1063 21.8507 9.79595C22.2945 9.33083 22.6557 8.6603 22.7738 8.02991C23.2365 5.56737 24.1855 3.38106 26.0222 1.63627C27.0114 0.696587 27.7905 0.748529 28.3051 1.99751C29.1668 4.08937 29.8444 6.25678 30.6093 8.38878C30.7061 8.65794 30.8028 9.04042 31.0106 9.13959C32.0706 9.64248 33.1495 10.1359 34.2661 10.4854C34.625 10.5987 35.116 10.2398 35.5575 10.1454C37.668 9.69679 38.6218 8.41003 38.9452 6.25914C39.1672 4.79295 39.9627 3.39051 40.6238 2.0164C41.2376 0.739085 41.9694 0.672976 43.0058 1.68349C44.8496 3.48023 45.7892 5.71847 46.2307 8.22351C46.3227 8.7453 46.6226 9.30958 46.9908 9.69206C48.2468 10.9977 49.2242 12.3104 48.412 14.2795C48.0744 15.1035 48.091 16.0763 47.7274 16.8837C47.522 17.337 46.861 17.8848 46.4266 17.8683C45.6593 17.8376 45.3808 17.1434 45.5649 16.3667C45.7467 15.6041 45.9308 14.8414 46.1268 14.0836C46.5966 12.2868 45.7184 10.9599 43.851 10.6813C41.3792 10.313 39.0373 10.934 36.915 12.0578C35.175 12.9786 33.7704 12.9928 32.0234 12.0484C29.986 10.9481 27.7149 10.3555 25.3211 10.6601C23.2719 10.9222 22.3984 12.1428 22.8352 14.1213C23.626 17.7148 24.4004 21.3106 25.203 25.0009H43.9124C44.1201 23.7472 44.3302 22.5573 44.512 21.3626C44.6348 20.5598 44.9794 19.9719 45.886 20.1348C46.8114 20.3001 46.7973 21.0013 46.7382 21.7781C46.5234 24.5924 46.3416 27.4091 46.2165 30.2306C46.1929 30.7783 46.3676 31.4087 46.6462 31.888C52.6237 42.1395 59.3142 51.8693 67.603 60.4256C68.7361 61.5943 68.7173 62.0854 67.3197 63.0204C65.3649 64.3284 63.3323 65.5254 61.3705 66.8263C61.0258 67.0554 60.8723 67.5606 60.6174 67.9313C60.3034 68.387 60.0697 68.9796 59.6376 69.2582C54.8027 72.3794 49.5122 74.4076 43.9029 75.6046C39.179 76.6128 34.3771 76.9787 29.6036 76.2822C26.0506 75.7628 22.566 74.7617 19.0626 73.9283C18.2694 73.7394 17.8256 73.1208 18.1608 72.311C18.47 71.5649 19.1169 71.5436 19.8535 71.7963C25.5265 73.7441 31.3553 74.6366 37.3517 74.2092C44.5167 73.7016 51.1907 71.5791 57.409 67.9998C57.5389 67.9242 57.6428 67.8014 57.6782 67.7731ZM25.1417 30.2211H43.792V27.2887H25.1417V30.2211ZM44.1154 8.29198C43.4733 6.77385 42.9279 5.48473 42.3826 4.19798C42.2409 4.21214 42.0993 4.22395 41.96 4.23811C41.5256 5.55792 41.0912 6.87773 40.6261 8.29198H44.1154ZM28.3854 8.29198C27.8896 6.86593 27.4364 5.55556 26.9807 4.24284C26.8296 4.24284 26.6785 4.24284 26.5274 4.24284C26.0057 5.54139 25.484 6.83759 24.8985 8.29198H28.3854Z" fill="#E2B562"/>
</g>
<defs>
<clipPath id="clip0_23_895">
<rect width="67.8257" height="75.6517" fill="white" transform="translate(0.587158 0.987061)"/>
</clipPath>
</defs>
</svg>
